<svg xmlns="http://www.w3.org/2000/svg" xmlns:xlink="http://www.w3.org/1999/xlink" viewBox="0 0 27.49 63.07"><defs><style>.cls-1{fill:#fff;}.cls-1,.cls-10,.cls-100,.cls-101,.cls-102,.cls-103,.cls-104,.cls-105,.cls-106,.cls-107,.cls-108,.cls-109,.cls-11,.cls-110,.cls-111,.cls-112,.cls-113,.cls-114,.cls-115,.cls-116,.cls-117,.cls-118,.cls-119,.cls-12,.cls-120,.cls-121,.cls-122,.cls-123,.cls-124,.cls-125,.cls-126,.cls-127,.cls-128,.cls-129,.cls-13,.cls-14,.cls-144,.cls-145,.cls-146,.cls-147,.cls-148,.cls-149,.cls-15,.cls-150,.cls-151,.cls-152,.cls-16,.cls-161,.cls-162,.cls-163,.cls-164,.cls-165,.cls-166,.cls-167,.cls-17,.cls-18,.cls-19,.cls-2,.cls-20,.cls-21,.cls-22,.cls-23,.cls-24,.cls-25,.cls-26,.cls-27,.cls-28,.cls-29,.cls-3,.cls-30,.cls-31,.cls-32,.cls-33,.cls-34,.cls-35,.cls-36,.cls-37,.cls-38,.cls-39,.cls-4,.cls-40,.cls-41,.cls-42,.cls-43,.cls-44,.cls-45,.cls-46,.cls-47,.cls-48,.cls-49,.cls-5,.cls-50,.cls-51,.cls-52,.cls-53,.cls-54,.cls-55,.cls-56,.cls-57,.cls-58,.cls-59,.cls-6,.cls-60,.cls-61,.cls-62,.cls-63,.cls-64,.cls-65,.cls-66,.cls-67,.cls-68,.cls-69,.cls-7,.cls-70,.cls-71,.cls-72,.cls-73,.cls-74,.cls-75,.cls-76,.cls-77,.cls-78,.cls-79,.cls-8,.cls-80,.cls-81,.cls-82,.cls-83,.cls-84,.cls-85,.cls-86,.cls-87,.cls-88,.cls-89,.cls-9,.cls-90,.cls-91,.cls-92,.cls-93,.cls-94,.cls-95,.cls-96,.cls-97,.cls-98,.cls-99{fill-rule:evenodd;}.cls-2{fill:#fdfdfd;}.cls-3{fill:#fbfbfb;}.cls-4{fill:#fafafa;}.cls-5{fill:#f8f8f9;}.cls-6{fill:#f7f7f8;}.cls-7{fill:#f6f6f7;}.cls-8{fill:#f5f5f5;}.cls-9{fill:#f4f4f5;}.cls-10{fill:#f3f3f4;}.cls-11{fill:#f2f2f3;}.cls-12{fill:#f1f1f2;}.cls-13{fill:#f0f0f1;}.cls-14{fill:#efeff0;}.cls-15{fill:#eeeeef;}.cls-16{fill:#ededee;}.cls-17{fill:#ececed;}.cls-18{fill:#ebebec;}.cls-19{fill:#eaeaeb;}.cls-20{fill:#e8e9ea;}.cls-21{fill:#e7e8e9;}.cls-143,.cls-22{fill:#e6e7e8;}.cls-23{fill:#e3e4e5;}.cls-140,.cls-24{fill:#e0e1e2;}.cls-25{fill:#dddee0;}.cls-137,.cls-26{fill:#dadbdd;}.cls-27{fill:#d7d9da;}.cls-134,.cls-28{fill:#d4d6d7;}.cls-29{fill:#d1d3d4;}.cls-131,.cls-30{fill:#ced0d1;}.cls-31{fill:#cbcdcf;}.cls-159,.cls-32{fill:#c8cacc;}.cls-33{fill:#c5c7c9;}.cls-156,.cls-34{fill:#c2c4c6;}.cls-35{fill:#bfc1c3;}.cls-153,.cls-36{fill:#bcbec0;}.cls-37{fill:#b9bbbd;}.cls-38{fill:#b6b8ba;}.cls-39{fill:#b3b5b7;}.cls-40{fill:#b0b2b4;}.cls-41{fill:#adafb2;}.cls-42{fill:#aaacaf;}.cls-43{fill:#a7a9ac;}.cls-44{fill:url(#GradientFill_29);}.cls-45{fill:url(#GradientFill_29-2);}.cls-46{fill:url(#GradientFill_24);}.cls-47{fill:#131618;}.cls-48{fill:url(#GradientFill_24-2);}.cls-49{fill:#a8aaad;}.cls-50{fill:#a9abae;}.cls-51{fill:#abadb0;}.cls-52{fill:#acaeb1;}.cls-53{fill:#aeb0b2;}.cls-54{fill:#afb1b3;}.cls-55{fill:#b1b3b5;}.cls-56{fill:#b2b4b6;}.cls-57{fill:#b4b6b8;}.cls-58{fill:#b5b7b9;}.cls-59{fill:#b7b9bb;}.cls-60{fill:#b8babc;}.cls-61{fill:#babcbe;}.cls-62{fill:#bbbdbf;}.cls-64{fill:#fefefe;}.cls-65{fill:#fcfcfc;}.cls-66{fill:#fafafb;}.cls-67{fill:#f9f9f9;}.cls-68{fill:#f8f8f8;}.cls-69{fill:#f6f7f7;}.cls-70{fill:#f5f6f6;}.cls-71{fill:#f4f5f5;}.cls-72{fill:#f3f4f4;}.cls-73{fill:#f2f3f3;}.cls-74{fill:#f1f2f2;}.cls-75{fill:#f0f1f1;}.cls-76{fill:#eff0f0;}.cls-77{fill:#eeefef;}.cls-78{fill:#edeeee;}.cls-79{fill:#eceded;}.cls-80{fill:#ebecec;}.cls-81{fill:#eaebec;}.cls-82{fill:#e9eaeb;}.cls-83{fill:url(#linear-gradient);}.cls-84{fill:url(#linear-gradient-2);}.cls-85{fill:url(#linear-gradient-3);}.cls-86{fill:url(#linear-gradient-4);}.cls-87{fill:url(#linear-gradient-5);}.cls-88{fill:url(#linear-gradient-6);}.cls-89{fill:url(#linear-gradient-7);}.cls-90{fill:url(#linear-gradient-8);}.cls-91{fill:url(#linear-gradient-9);}.cls-92{fill:url(#linear-gradient-10);}.cls-93{fill:url(#linear-gradient-11);}.cls-94{fill:url(#linear-gradient-12);}.cls-95{fill:url(#linear-gradient-13);}.cls-96{fill:url(#linear-gradient-14);}.cls-97{fill:url(#linear-gradient-15);}.cls-98{fill:url(#linear-gradient-16);}.cls-99{fill:url(#linear-gradient-17);}.cls-100{fill:url(#linear-gradient-18);}.cls-101{fill:url(#linear-gradient-19);}.cls-102{fill:url(#linear-gradient-20);}.cls-103{fill:url(#GradientFill_120);}.cls-104{fill:url(#linear-gradient-21);}.cls-105{fill:url(#linear-gradient-22);}.cls-106{fill:url(#linear-gradient-23);}.cls-107{fill:url(#linear-gradient-24);}.cls-108{fill:url(#linear-gradient-25);}.cls-109{fill:url(#linear-gradient-26);}.cls-110{fill:url(#linear-gradient-27);}.cls-111{fill:url(#linear-gradient-28);}.cls-112{fill:url(#linear-gradient-29);}.cls-113{fill:url(#linear-gradient-30);}.cls-114{fill:url(#linear-gradient-31);}.cls-115{fill:url(#linear-gradient-32);}.cls-116{fill:url(#linear-gradient-33);}.cls-117{fill:url(#linear-gradient-34);}.cls-118{fill:url(#linear-gradient-35);}.cls-119{fill:url(#linear-gradient-36);}.cls-120{fill:url(#linear-gradient-37);}.cls-121{fill:url(#linear-gradient-38);}.cls-122{fill:url(#linear-gradient-39);}.cls-123{fill:url(#linear-gradient-40);}.cls-124{fill:url(#GradientFill_120-2);}.cls-125,.cls-154{fill:#bec0c2;}.cls-126,.cls-155{fill:#c0c2c4;}.cls-127,.cls-157{fill:#c4c6c8;}.cls-128,.cls-158{fill:#c6c8ca;}.cls-129,.cls-160{fill:#caccce;}.cls-130,.cls-144{fill:#ccced0;}.cls-132,.cls-145{fill:#d0d2d3;}.cls-133,.cls-146{fill:#d2d4d5;}.cls-135,.cls-147{fill:#d6d8d9;}.cls-136,.cls-148{fill:#d8d9db;}.cls-138,.cls-149{fill:#dcdddf;}.cls-139,.cls-150{fill:#dedfe1;}.cls-141,.cls-151{fill:#e2e3e4;}.cls-142,.cls-152{fill:#e4e5e6;}.cls-161{fill:url(#GradientFill_121);}.cls-162{fill:#808285;}.cls-163{fill:url(#GradientFill_30);}.cls-164{fill:url(#GradientFill_30-2);}.cls-165{fill:#0d383d;}.cls-166{fill:url(#GradientFill_22);}.cls-167{fill:url(#GradientFill_22-2);}</style><linearGradient id="GradientFill_29" x1="22.53" y1="59.52" x2="22.24" y2="58.28" gradientUnits="userSpaceOnUse"><stop offset="0" stop-color="#ef3e25"/><stop offset="1" stop-color="#6f2e48"/></linearGradient><linearGradient id="GradientFill_29-2" x1="4.85" y1="59.15" x2="5.18" y2="58.34" xlink:href="#GradientFill_29"/><linearGradient id="GradientFill_24" x1="26.4" y1="18.17" x2="25.42" y2="19.86" gradientUnits="userSpaceOnUse"><stop offset="0" stop-color="#34383a"/><stop offset="1" stop-color="#131618"/></linearGradient><linearGradient id="GradientFill_24-2" x1="1.1" y1="18.18" x2="2.04" y2="19.88" xlink:href="#GradientFill_24"/><linearGradient id="linear-gradient" x1="20.74" y1="1.8" x2="20.74" y2="13.94" gradientUnits="userSpaceOnUse"><stop offset="0" stop-color="#e6e7e8"/><stop offset="0.24" stop-color="#e4e5e6"/><stop offset="1" stop-color="#e4e5e6"/></linearGradient><linearGradient id="linear-gradient-2" x1="20.74" y1="1.8" x2="20.74" y2="13.94" gradientUnits="userSpaceOnUse"><stop offset="0" stop-color="#e6e7e8"/><stop offset="0.24" stop-color="#e2e3e4"/><stop offset="1" stop-color="#e2e3e4"/></linearGradient><linearGradient id="linear-gradient-3" x1="20.74" y1="1.8" x2="20.74" y2="13.94" gradientUnits="userSpaceOnUse"><stop offset="0" stop-color="#e6e7e8"/><stop offset="0.24" stop-color="#e0e1e2"/><stop offset="1" stop-color="#e0e1e2"/></linearGradient><linearGradient id="linear-gradient-4" x1="20.74" y1="1.8" x2="20.74" y2="13.94" gradientUnits="userSpaceOnUse"><stop offset="0" stop-color="#e6e7e8"/><stop offset="0.24" stop-color="#dedfe1"/><stop offset="1" stop-color="#dedfe1"/></linearGradient><linearGradient id="linear-gradient-5" x1="20.74" y1="1.8" x2="20.74" y2="13.94" gradientUnits="userSpaceOnUse"><stop offset="0" stop-color="#e6e7e8"/><stop offset="0.24" stop-color="#dcdddf"/><stop offset="1" stop-color="#dcdddf"/></linearGradient><linearGradient id="linear-gradient-6" x1="20.74" y1="1.8" x2="20.74" y2="13.94" gradientUnits="userSpaceOnUse"><stop offset="0" stop-color="#e6e7e8"/><stop offset="0.24" stop-color="#dadbdd"/><stop offset="1" stop-color="#dadbdd"/></linearGradient><linearGradient id="linear-gradient-7" x1="20.74" y1="1.8" x2="20.74" y2="13.94" gradientUnits="userSpaceOnUse"><stop offset="0" stop-color="#e6e7e8"/><stop offset="0.24" stop-color="#d8d9db"/><stop offset="1" stop-color="#d8d9db"/></linearGradient><linearGradient id="linear-gradient-8" x1="20.74" y1="1.8" x2="20.74" y2="13.94" gradientUnits="userSpaceOnUse"><stop offset="0" stop-color="#e6e7e8"/><stop offset="0.24" stop-color="#d6d8d9"/><stop offset="1" stop-color="#d6d8d9"/></linearGradient><linearGradient id="linear-gradient-9" x1="20.74" y1="1.8" x2="20.74" y2="13.94" gradientUnits="userSpaceOnUse"><stop offset="0" stop-color="#e6e7e8"/><stop offset="0.24" stop-color="#d4d6d7"/><stop offset="1" stop-color="#d4d6d7"/></linearGradient><linearGradient id="linear-gradient-10" x1="20.74" y1="1.8" x2="20.74" y2="13.94" gradientUnits="userSpaceOnUse"><stop offset="0" stop-color="#e6e7e8"/><stop offset="0.24" stop-color="#d2d4d5"/><stop offset="1" stop-color="#d2d4d5"/></linearGradient><linearGradient id="linear-gradient-11" x1="20.74" y1="1.8" x2="20.74" y2="13.94" gradientUnits="userSpaceOnUse"><stop offset="0" stop-color="#e6e7e8"/><stop offset="0.24" stop-color="#d0d2d3"/><stop offset="1" stop-color="#d0d2d3"/></linearGradient><linearGradient id="linear-gradient-12" x1="20.74" y1="1.8" x2="20.74" y2="13.94" gradientUnits="userSpaceOnUse"><stop offset="0" stop-color="#e6e7e8"/><stop offset="0.24" stop-color="#ced0d1"/><stop offset="1" stop-color="#ced0d1"/></linearGradient><linearGradient id="linear-gradient-13" x1="20.74" y1="1.8" x2="20.74" y2="13.94" gradientUnits="userSpaceOnUse"><stop offset="0" stop-color="#e6e7e8"/><stop offset="0.24" stop-color="#ccced0"/><stop offset="1" stop-color="#ccced0"/></linearGradient><linearGradient id="linear-gradient-14" x1="20.74" y1="1.8" x2="20.74" y2="13.94" gradientUnits="userSpaceOnUse"><stop offset="0" stop-color="#e6e7e8"/><stop offset="0.24" stop-color="#caccce"/><stop offset="1" stop-color="#caccce"/></linearGradient><linearGradient id="linear-gradient-15" x1="20.74" y1="1.8" x2="20.74" y2="13.94" gradientUnits="userSpaceOnUse"><stop offset="0" stop-color="#e6e7e8"/><stop offset="0.24" stop-color="#c8cacc"/><stop offset="1" stop-color="#c8cacc"/></linearGradient><linearGradient id="linear-gradient-16" x1="20.74" y1="1.8" x2="20.74" y2="13.94" gradientUnits="userSpaceOnUse"><stop offset="0" stop-color="#e6e7e8"/><stop offset="0.24" stop-color="#c6c8ca"/><stop offset="1" stop-color="#c6c8ca"/></linearGradient><linearGradient id="linear-gradient-17" x1="20.74" y1="1.8" x2="20.74" y2="13.94" gradientUnits="userSpaceOnUse"><stop offset="0" stop-color="#e6e7e8"/><stop offset="0.24" stop-color="#c4c6c8"/><stop offset="1" stop-color="#c4c6c8"/></linearGradient><linearGradient id="linear-gradient-18" x1="20.74" y1="1.8" x2="20.74" y2="13.94" gradientUnits="userSpaceOnUse"><stop offset="0" stop-color="#e6e7e8"/><stop offset="0.24" stop-color="#c2c4c6"/><stop offset="1" stop-color="#c2c4c6"/></linearGradient><linearGradient id="linear-gradient-19" x1="20.74" y1="1.8" x2="20.74" y2="13.94" gradientUnits="userSpaceOnUse"><stop offset="0" stop-color="#e6e7e8"/><stop offset="0.24" stop-color="#c0c2c4"/><stop offset="1" stop-color="#c0c2c4"/></linearGradient><linearGradient id="linear-gradient-20" x1="20.74" y1="1.8" x2="20.74" y2="13.94" gradientUnits="userSpaceOnUse"><stop offset="0" stop-color="#e6e7e8"/><stop offset="0.24" stop-color="#bec0c2"/><stop offset="1" stop-color="#bec0c2"/></linearGradient><linearGradient id="GradientFill_120" x1="20.74" y1="1.8" x2="20.74" y2="13.94" gradientUnits="userSpaceOnUse"><stop offset="0" stop-color="#e6e7e8"/><stop offset="0.24" stop-color="#bcbec0"/><stop offset="1" stop-color="#bcbec0"/></linearGradient><linearGradient id="linear-gradient-21" x1="6.75" y1="1.8" x2="6.75" y2="13.94" xlink:href="#linear-gradient"/><linearGradient id="linear-gradient-22" x1="6.75" y1="1.8" x2="6.75" y2="13.94" xlink:href="#linear-gradient-2"/><linearGradient id="linear-gradient-23" x1="6.75" y1="1.8" x2="6.75" y2="13.94" xlink:href="#linear-gradient-3"/><linearGradient id="linear-gradient-24" x1="6.75" y1="1.8" x2="6.75" y2="13.94" xlink:href="#linear-gradient-4"/><linearGradient id="linear-gradient-25" x1="6.75" y1="1.8" x2="6.75" y2="13.94" xlink:href="#linear-gradient-5"/><linearGradient id="linear-gradient-26" x1="6.75" y1="1.8" x2="6.75" y2="13.94" xlink:href="#linear-gradient-6"/><linearGradient id="linear-gradient-27" x1="6.75" y1="1.8" x2="6.75" y2="13.94" xlink:href="#linear-gradient-7"/><linearGradient id="linear-gradient-28" x1="6.75" y1="1.8" x2="6.75" y2="13.94" xlink:href="#linear-gradient-8"/><linearGradient id="linear-gradient-29" x1="6.75" y1="1.8" x2="6.75" y2="13.94" xlink:href="#linear-gradient-9"/><linearGradient id="linear-gradient-30" x1="6.75" y1="1.8" x2="6.75" y2="13.94" xlink:href="#linear-gradient-10"/><linearGradient id="linear-gradient-31" x1="6.75" y1="1.8" x2="6.75" y2="13.94" xlink:href="#linear-gradient-11"/><linearGradient id="linear-gradient-32" x1="6.75" y1="1.8" x2="6.75" y2="13.94" xlink:href="#linear-gradient-12"/><linearGradient id="linear-gradient-33" x1="6.75" y1="1.8" x2="6.75" y2="13.94" xlink:href="#linear-gradient-13"/><linearGradient id="linear-gradient-34" x1="6.75" y1="1.8" x2="6.75" y2="13.94" xlink:href="#linear-gradient-14"/><linearGradient id="linear-gradient-35" x1="6.75" y1="1.8" x2="6.75" y2="13.94" xlink:href="#linear-gradient-15"/><linearGradient id="linear-gradient-36" x1="6.75" y1="1.8" x2="6.75" y2="13.94" xlink:href="#linear-gradient-16"/><linearGradient id="linear-gradient-37" x1="6.75" y1="1.8" x2="6.75" y2="13.94" xlink:href="#linear-gradient-17"/><linearGradient id="linear-gradient-38" x1="6.75" y1="1.8" x2="6.75" y2="13.94" xlink:href="#linear-gradient-18"/><linearGradient id="linear-gradient-39" x1="6.75" y1="1.8" x2="6.75" y2="13.94" xlink:href="#linear-gradient-19"/><linearGradient id="linear-gradient-40" x1="6.75" y1="1.8" x2="6.75" y2="13.94" xlink:href="#linear-gradient-20"/><linearGradient id="GradientFill_120-2" x1="6.75" y1="1.8" x2="6.75" y2="13.94" xlink:href="#GradientFill_120"/><linearGradient id="GradientFill_121" x1="13.73" y1="0.01" x2="13.73" y2="0.99" gradientUnits="userSpaceOnUse"><stop offset="0" stop-color="#e6e7e8"/><stop offset="0.56" stop-color="#e0e1e2"/><stop offset="1" stop-color="#bcbec0"/></linearGradient><linearGradient id="GradientFill_30" x1="6.69" y1="4.11" x2="6.32" y2="0.63" gradientUnits="userSpaceOnUse"><stop offset="0" stop-color="#939598"/><stop offset="1" stop-color="#e6e7e8"/></linearGradient><linearGradient id="GradientFill_30-2" x1="20.76" y1="4.1" x2="21.19" y2="0.63" xlink:href="#GradientFill_30"/><linearGradient id="GradientFill_22" x1="3.93" y1="17.36" x2="10.23" y2="17.14" gradientUnits="userSpaceOnUse"><stop offset="0" stop-color="#486970"/><stop offset="0.32" stop-color="#275259"/><stop offset="0.4" stop-color="#1e454b"/><stop offset="0.59" stop-color="#163f45"/><stop offset="1" stop-color="#0d383d"/></linearGradient><linearGradient id="GradientFill_22-2" x1="23.31" y1="17.34" x2="19.09" y2="17.19" xlink:href="#GradientFill_22"/></defs><g id="Layer_2" data-name="Layer 2"><g id="Layer_1-2" data-name="Layer 1"><path class="cls-1" d="M7.07.86A8.77,8.77,0,0,0,2.83,4.21,7.5,7.5,0,0,0,1.76,7.64C1.53,8.93.55,18.45.55,18.45V59.53c0,1.73,1.32,2.29,2.93,2.67,4.93,1.17,15.82,1.16,20.64,0,1.57-.39,2.8-1,2.8-2.64V18.45s-1-9.52-1.21-10.81a7.62,7.62,0,0,0-1.07-3.43A8.77,8.77,0,0,0,20.4.86C17.13-.29,10.34-.29,7.07.86Z"/><path class="cls-2" d="M7.11,1A8.58,8.58,0,0,0,2.89,4.29,7.42,7.42,0,0,0,1.82,7.71C1.59,9,.62,18.49.62,18.49V59.43c0,1.72,1.31,2.28,2.91,2.66,4.91,1.17,15.75,1.15,20.54,0,1.56-.38,2.78-1,2.78-2.62V18.49s-1-9.49-1.2-10.78a7.42,7.42,0,0,0-1.07-3.42A8.63,8.63,0,0,0,20.36,1C17.11-.19,10.36-.19,7.11,1Z"/><path class="cls-3" d="M7.14,1.05a8.56,8.56,0,0,0-4.2,3.33,7.45,7.45,0,0,0-1.06,3.4C1.65,9.06.68,18.52.68,18.52v40.8C.68,61,2,61.59,3.58,62c4.88,1.17,15.67,1.16,20.44,0,1.55-.38,2.77-1,2.77-2.62V18.52s-1-9.46-1.2-10.74a7.45,7.45,0,0,0-1.06-3.4,8.56,8.56,0,0,0-4.2-3.33C17.09-.09,10.37-.09,7.14,1.05Z"/><path class="cls-4" d="M7.17,1.14A8.54,8.54,0,0,0,3,4.46,7.4,7.4,0,0,0,1.94,7.85C1.71,9.13.74,18.55.74,18.55V59.21c0,1.71,1.31,2.27,2.89,2.65C8.49,63,19.22,63,24,61.82c1.54-.38,2.76-1,2.76-2.61V18.55s-1-9.42-1.2-10.7a7.4,7.4,0,0,0-1.05-3.39A8.54,8.54,0,0,0,20.3,1.14C17.08,0,10.39,0,7.17,1.14Z"/><path class="cls-5" d="M7.2,1.24a8.47,8.47,0,0,0-4.15,3.3A7.28,7.28,0,0,0,2,7.92C1.77,9.19.81,18.59.81,18.59V59.11c0,1.7,1.3,2.25,2.87,2.63,4.83,1.16,15.51,1.15,20.24,0,1.53-.38,2.74-1,2.74-2.6V18.59s-1-9.4-1.19-10.67a7.4,7.4,0,0,0-1-3.38,8.47,8.47,0,0,0-4.15-3.3A25.4,25.4,0,0,0,7.2,1.24Z"/><path class="cls-6" d="M7.24,1.33A8.43,8.43,0,0,0,3.1,4.62,7.48,7.48,0,0,0,2.05,8C1.83,9.26.87,18.62.87,18.62V59c0,1.7,1.29,2.25,2.86,2.63,4.81,1.15,15.44,1.14,20.14,0,1.52-.38,2.73-1,2.73-2.59V18.62S25.64,9.26,25.41,8a7.35,7.35,0,0,0-1-3.37,8.43,8.43,0,0,0-4.14-3.29C17,.2,10.42.2,7.24,1.33Z"/><path class="cls-7" d="M7.27,1.43A8.39,8.39,0,0,0,3.15,4.7a7.43,7.43,0,0,0-1,3.37C1.89,9.33.94,18.66.94,18.66V58.9c0,1.69,1.28,2.24,2.84,2.61,4.79,1.15,15.36,1.14,20,0,1.52-.38,2.71-.95,2.71-2.58V18.66s-1-9.33-1.17-10.59a7.43,7.43,0,0,0-1-3.37A8.39,8.39,0,0,0,20.2,1.43,25.08,25.08,0,0,0,7.27,1.43Z"/><path class="cls-8" d="M7.3,1.52A8.34,8.34,0,0,0,3.21,4.79a7.31,7.31,0,0,0-1,3.35C2,9.39,1,18.69,1,18.69v40.1C1,60.47,2.28,61,3.83,61.4c4.76,1.14,15.28,1.13,19.94,0,1.51-.37,2.7-.94,2.7-2.57V18.69s-.95-9.3-1.17-10.55a7.31,7.31,0,0,0-1-3.35,8.34,8.34,0,0,0-4.09-3.27A24.85,24.85,0,0,0,7.3,1.52Z"/><path class="cls-9" d="M7.33,1.61A8.31,8.31,0,0,0,3.26,4.87a7.26,7.26,0,0,0-1,3.34C2,9.46,1.07,18.72,1.07,18.72v40c0,1.68,1.27,2.23,2.81,2.6,4.74,1.14,15.21,1.13,19.84,0,1.5-.38,2.68-.94,2.68-2.57v-40s-.94-9.26-1.16-10.51a7.26,7.26,0,0,0-1-3.34,8.31,8.31,0,0,0-4.07-3.26A24.84,24.84,0,0,0,7.33,1.61Z"/><path class="cls-10" d="M7.37,1.71A8.26,8.26,0,0,0,3.31,5a7.37,7.37,0,0,0-1,3.33C2.07,9.52,1.13,18.76,1.13,18.76V58.58c0,1.67,1.27,2.22,2.8,2.59,4.71,1.13,15.13,1.12,19.74,0,1.49-.37,2.67-.93,2.67-2.55V18.76S25.4,9.52,25.18,8.28a7.37,7.37,0,0,0-1-3.33A8.26,8.26,0,0,0,20.1,1.71,24.54,24.54,0,0,0,7.37,1.71Z"/><path class="cls-11" d="M7.4,1.8A8.2,8.2,0,0,0,3.37,5a7.21,7.21,0,0,0-1,3.32C2.13,9.59,1.19,18.79,1.19,18.79V58.47c0,1.67,1.26,2.21,2.79,2.58C8.67,62.18,19,62.17,23.62,61c1.48-.37,2.65-.94,2.65-2.55V18.79s-.93-9.2-1.15-10.44A7.21,7.21,0,0,0,24.1,5a8.2,8.2,0,0,0-4-3.23A24.52,24.52,0,0,0,7.4,1.8Z"/><path class="cls-12" d="M7.43,1.89a8.28,8.28,0,0,0-4,3.22,7.31,7.31,0,0,0-1,3.31c-.23,1.24-1.15,10.4-1.15,10.4V58.36C1.26,60,2.51,60.57,4,60.94c4.67,1.12,15,1.11,19.54,0,1.47-.37,2.64-.93,2.64-2.54V18.82s-.93-9.16-1.15-10.4a7.31,7.31,0,0,0-1-3.31,8.28,8.28,0,0,0-4-3.22A24.29,24.29,0,0,0,7.43,1.89Z"/><path class="cls-13" d="M7.46,2a8.2,8.2,0,0,0-4,3.21,7.32,7.32,0,0,0-1,3.29C2.24,9.72,1.32,18.86,1.32,18.86v39.4c0,1.65,1.25,2.19,2.76,2.56,4.64,1.12,14.9,1.11,19.43,0,1.48-.37,2.64-.93,2.64-2.53V18.86S25.22,9.72,25,8.49A7.32,7.32,0,0,0,24,5.2,8.2,8.2,0,0,0,20,2,24.07,24.07,0,0,0,7.46,2Z"/><path class="cls-14" d="M7.5,2.08a8.13,8.13,0,0,0-4,3.2,7.16,7.16,0,0,0-1,3.28C2.3,9.79,1.39,18.89,1.39,18.89V58.15c0,1.65,1.24,2.19,2.74,2.55,4.62,1.13,14.82,1.11,19.33,0,1.47-.37,2.62-.92,2.62-2.52V18.89S25.17,9.79,25,8.56a7.16,7.16,0,0,0-1-3.28,8.13,8.13,0,0,0-4-3.2A24,24,0,0,0,7.5,2.08Z"/><path class="cls-15" d="M7.53,2.17A8.15,8.15,0,0,0,3.58,5.36a7.23,7.23,0,0,0-1,3.27C2.36,9.85,1.45,18.92,1.45,18.92V58.05c0,1.64,1.24,2.18,2.73,2.54,4.59,1.12,14.74,1.11,19.23,0,1.46-.37,2.61-.92,2.61-2.51V18.92s-.91-9.07-1.13-10.29a7.23,7.23,0,0,0-1-3.27,8.15,8.15,0,0,0-3.95-3.19A23.75,23.75,0,0,0,7.53,2.17Z"/><path class="cls-16" d="M7.56,2.27A8.06,8.06,0,0,0,3.63,5.44a7.21,7.21,0,0,0-1,3.26C2.42,9.92,1.52,19,1.52,19v39c0,1.64,1.22,2.17,2.71,2.53,4.57,1.12,14.67,1.11,19.13,0,1.45-.36,2.59-.92,2.59-2.5V19s-.9-9-1.12-10.26a7.34,7.34,0,0,0-1-3.26,8.06,8.06,0,0,0-3.93-3.17A23.52,23.52,0,0,0,7.56,2.27Z"/><path class="cls-17" d="M7.59,2.36a8,8,0,0,0-3.9,3.16,7.17,7.17,0,0,0-1,3.25C2.48,10,1.58,19,1.58,19V57.83c0,1.64,1.22,2.17,2.7,2.53,4.55,1.11,14.59,1.1,19,0,1.44-.37,2.58-.92,2.58-2.5V19S25,10,24.77,8.77a7.17,7.17,0,0,0-1-3.25,8.06,8.06,0,0,0-3.9-3.16A23.5,23.5,0,0,0,7.59,2.36Z"/><path class="cls-18" d="M7.63,2.45A7.92,7.92,0,0,0,3.74,5.61a7.08,7.08,0,0,0-1,3.23C2.54,10.05,1.65,19,1.65,19v38.7c0,1.62,1.21,2.15,2.68,2.51,4.52,1.11,14.51,1.1,18.93,0,1.43-.36,2.56-.91,2.56-2.48V19s-.89-9-1.11-10.19a7.08,7.08,0,0,0-1-3.23,8,8,0,0,0-3.89-3.16A23.41,23.41,0,0,0,7.63,2.45Z"/><path class="cls-19" d="M7.66,2.55A7.89,7.89,0,0,0,3.79,5.69a7.25,7.25,0,0,0-1,3.22c-.21,1.21-1.1,10.15-1.1,10.15V57.62c0,1.62,1.21,2.15,2.67,2.51,4.5,1.1,14.43,1.09,18.83,0,1.42-.37,2.55-.91,2.55-2.48V19.06s-.89-8.94-1.11-10.15a7.12,7.12,0,0,0-1-3.22,7.89,7.89,0,0,0-3.87-3.14A23,23,0,0,0,7.66,2.55Z"/><path class="cls-20" d="M7.69,2.64A7.91,7.91,0,0,0,3.84,5.77,7.24,7.24,0,0,0,2.87,9c-.21,1.2-1.1,10.11-1.1,10.11V57.52c0,1.61,1.2,2.14,2.66,2.49,4.47,1.1,14.36,1.09,18.73,0,1.42-.36,2.54-.9,2.54-2.46V19.09S24.81,10.18,24.6,9a7.25,7.25,0,0,0-1-3.21,7.88,7.88,0,0,0-3.84-3.13A23,23,0,0,0,7.69,2.64Z"/><path class="cls-21" d="M7.72,2.73A7.85,7.85,0,0,0,3.9,5.85a7.07,7.07,0,0,0-1,3.2c-.21,1.2-1.09,10.08-1.09,10.08V57.41C1.84,59,3,59.54,4.48,59.9,8.93,61,18.76,61,23.11,59.87c1.41-.36,2.52-.9,2.52-2.46V19.13s-.88-8.88-1.09-10.08a7.07,7.07,0,0,0-1-3.2,7.85,7.85,0,0,0-3.82-3.12A22.94,22.94,0,0,0,7.72,2.73Z"/><path class="cls-22" d="M7.76,2.83A7.8,7.8,0,0,0,4,5.93,7.18,7.18,0,0,0,3,9.12c-.21,1.2-1.09,10-1.09,10V57.3c0,1.61,1.19,2.13,2.63,2.48,4.43,1.09,14.2,1.08,18.53,0,1.4-.36,2.51-.9,2.51-2.45V19.16s-.88-8.84-1.09-10a7.18,7.18,0,0,0-1-3.19,7.8,7.8,0,0,0-3.81-3.1A22.64,22.64,0,0,0,7.76,2.83Z"/><path class="cls-23" d="M7.78,2.88A7.73,7.73,0,0,0,4,6,7.07,7.07,0,0,0,3,9.16c-.21,1.19-1.08,10-1.08,10V57.24c0,1.6,1.18,2.12,2.62,2.48C9,60.8,18.71,60.79,23,59.68c1.4-.35,2.5-.89,2.5-2.44V19.17s-.87-8.82-1.08-10a7.07,7.07,0,0,0-1-3.18,7.73,7.73,0,0,0-3.79-3.1A22.5,22.5,0,0,0,7.78,2.88Z"/><path class="cls-24" d="M7.8,2.92A7.78,7.78,0,0,0,4,6a7.06,7.06,0,0,0-1,3.17c-.2,1.19-1.08,10-1.08,10v38c0,1.59,1.18,2.11,2.61,2.47C9,60.73,18.69,60.72,23,59.62c1.39-.36,2.48-.9,2.48-2.44v-38s-.87-8.81-1.07-10a7.06,7.06,0,0,0-1-3.17,7.78,7.78,0,0,0-3.77-3.1A22.55,22.55,0,0,0,7.8,2.92Z"/><path class="cls-25" d="M7.83,3A7.73,7.73,0,0,0,4.07,6.06a6.93,6.93,0,0,0-1,3.17c-.21,1.19-1.08,10-1.08,10v37.9c0,1.6,1.17,2.12,2.6,2.47,4.37,1.08,14,1.07,18.31,0,1.38-.36,2.48-.89,2.48-2.44V19.21s-.87-8.79-1.08-10a6.93,6.93,0,0,0-1-3.17A7.73,7.73,0,0,0,19.64,3,22.33,22.33,0,0,0,7.83,3Z"/><path class="cls-26" d="M7.85,3A7.74,7.74,0,0,0,4.1,6.1a7,7,0,0,0-.94,3.16c-.21,1.19-1.07,10-1.07,10V57.05c0,1.59,1.17,2.11,2.58,2.46,4.36,1.08,14,1.07,18.24,0,1.38-.36,2.47-.89,2.47-2.43V19.22s-.86-8.77-1.07-10a7,7,0,0,0-.94-3.16A7.79,7.79,0,0,0,19.62,3,22.18,22.18,0,0,0,7.85,3Z"/><path class="cls-27" d="M7.87,3.07A7.72,7.72,0,0,0,4.14,6.15,7,7,0,0,0,3.2,9.3C3,10.48,2.13,19.24,2.13,19.24V57c0,1.59,1.17,2.1,2.58,2.45,4.34,1.08,13.92,1.07,18.17,0,1.37-.35,2.46-.89,2.46-2.42V19.24s-.86-8.76-1.07-9.94a7.09,7.09,0,0,0-.94-3.15A7.72,7.72,0,0,0,19.6,3.07,22,22,0,0,0,7.87,3.07Z"/><path class="cls-28" d="M7.9,3.12A7.63,7.63,0,0,0,4.18,6.19a7,7,0,0,0-.94,3.15c-.2,1.18-1.06,9.91-1.06,9.91V56.93c0,1.58,1.16,2.09,2.57,2.44,4.32,1.08,13.87,1.07,18.09,0,1.37-.35,2.45-.88,2.45-2.41V19.25s-.86-8.73-1.06-9.91a7.18,7.18,0,0,0-.94-3.15,7.63,7.63,0,0,0-3.72-3.07A21.81,21.81,0,0,0,7.9,3.12Z"/><path class="cls-29" d="M7.92,3.17a7.6,7.6,0,0,0-3.7,3.06,7.18,7.18,0,0,0-.94,3.14c-.2,1.18-1.06,9.9-1.06,9.9V56.86c0,1.58,1.16,2.1,2.56,2.45,4.31,1.07,13.82,1.06,18,0,1.37-.36,2.44-.89,2.44-2.42V19.27s-.85-8.72-1-9.9a7.18,7.18,0,0,0-.94-3.14,7.6,7.6,0,0,0-3.7-3.06A21.66,21.66,0,0,0,7.92,3.17Z"/><path class="cls-30" d="M7.94,3.22a7.53,7.53,0,0,0-3.68,3,7.18,7.18,0,0,0-.94,3.14c-.2,1.17-1,9.87-1,9.87V56.8c0,1.58,1.15,2.09,2.55,2.44,4.28,1.07,13.76,1.06,18,0,1.36-.35,2.43-.89,2.43-2.41V19.28s-.85-8.7-1.05-9.87a7.18,7.18,0,0,0-.94-3.14,7.58,7.58,0,0,0-3.68-3A21.52,21.52,0,0,0,7.94,3.22Z"/><path class="cls-31" d="M8,3.26A7.68,7.68,0,0,0,4.29,6.31a7.15,7.15,0,0,0-.92,3.13c-.21,1.18-1.05,9.86-1.05,9.86V56.74c0,1.57,1.14,2.08,2.53,2.43,4.27,1.07,13.71,1.06,17.88,0,1.35-.35,2.42-.88,2.42-2.4V19.3s-.85-8.68-1-9.86a7.15,7.15,0,0,0-.92-3.13,7.68,7.68,0,0,0-3.68-3A21.5,21.5,0,0,0,8,3.26Z"/><path class="cls-32" d="M8,3.31A7.57,7.57,0,0,0,4.33,6.36a7.07,7.07,0,0,0-.92,3.12c-.2,1.17-1.05,9.83-1.05,9.83V56.67c0,1.57,1.14,2.09,2.53,2.43,4.25,1.07,13.65,1.06,17.81,0,1.34-.35,2.41-.88,2.41-2.4V19.31s-.85-8.66-1.05-9.83a7.07,7.07,0,0,0-.92-3.12,7.61,7.61,0,0,0-3.66-3.05A21.35,21.35,0,0,0,8,3.31Z"/><path class="cls-33" d="M8,3.36a7.54,7.54,0,0,0-3.64,3,7.07,7.07,0,0,0-.92,3.11c-.2,1.17-1,9.82-1,9.82V56.61c0,1.57,1.14,2.08,2.51,2.42,4.24,1.07,13.6,1.06,17.74,0,1.34-.35,2.4-.87,2.4-2.39V19.33s-.84-8.65-1-9.82A7.07,7.07,0,0,0,23.1,6.4a7.54,7.54,0,0,0-3.64-3A21.4,21.4,0,0,0,8,3.36Z"/><path class="cls-34" d="M8,3.41a7.51,7.51,0,0,0-3.62,3,7,7,0,0,0-.92,3.11c-.2,1.17-1,9.79-1,9.79V56.55C2.45,58.11,3.59,58.62,5,59,9.18,60,18.5,60,22.62,58.94,24,58.59,25,58.06,25,56.55V19.34s-.83-8.62-1-9.79a7,7,0,0,0-.92-3.11,7.5,7.5,0,0,0-3.63-3A21.22,21.22,0,0,0,8,3.41Z"/><path class="cls-35" d="M8.06,3.46a7.48,7.48,0,0,0-3.61,3,7,7,0,0,0-.92,3.11c-.2,1.16-1,9.77-1,9.77V56.48C2.5,58,3.63,58.55,5,58.9,9.2,60,18.48,60,22.59,58.87,23.92,58.52,25,58,25,56.48V19.36s-.84-8.61-1-9.77A7,7,0,0,0,23,6.48a7.48,7.48,0,0,0-3.61-3A21,21,0,0,0,8.06,3.46Z"/><path class="cls-36" d="M8.08,3.51a7.44,7.44,0,0,0-3.6,3,7.07,7.07,0,0,0-.91,3.09c-.19,1.16-1,9.75-1,9.75V56.42C2.55,58,3.67,58.49,5,58.83c4.19,1.06,13.43,1.05,17.52,0,1.33-.35,2.37-.87,2.37-2.38v-37s-.83-8.59-1-9.75A6.92,6.92,0,0,0,23,6.53a7.44,7.44,0,0,0-3.6-3A20.89,20.89,0,0,0,8.08,3.51Z"/><path class="cls-37" d="M8.1,3.56a7.36,7.36,0,0,0-3.58,3,6.92,6.92,0,0,0-.9,3.09c-.2,1.16-1,9.73-1,9.73v37c0,1.55,1.12,2.06,2.48,2.4,4.16,1.06,13.37,1.05,17.44,0,1.32-.35,2.37-.87,2.37-2.37v-37s-.83-8.57-1-9.73A6.92,6.92,0,0,0,23,6.57a7.39,7.39,0,0,0-3.59-3A20.71,20.71,0,0,0,8.1,3.56Z"/><path class="cls-38" d="M8.13,3.61a7.42,7.42,0,0,0-3.57,3,6.92,6.92,0,0,0-.9,3.08c-.2,1.16-1,9.71-1,9.71V56.3c0,1.55,1.11,2.05,2.46,2.39,4.15,1.06,13.32,1.05,17.38,0,1.31-.34,2.35-.87,2.35-2.36V19.4s-.82-8.55-1-9.71a7.05,7.05,0,0,0-.9-3.08,7.42,7.42,0,0,0-3.57-3A20.53,20.53,0,0,0,8.13,3.61Z"/><path class="cls-39" d="M8.15,3.65a7.41,7.41,0,0,0-3.55,3,7.05,7.05,0,0,0-.9,3.08c-.2,1.15-1,9.69-1,9.69V56.23c0,1.55,1.11,2.05,2.46,2.4,4.13,1,13.26,1,17.3,0,1.31-.35,2.34-.87,2.34-2.37V19.42s-.82-8.54-1-9.69a7.19,7.19,0,0,0-.9-3.08,7.41,7.41,0,0,0-3.55-3A20.58,20.58,0,0,0,8.15,3.65Z"/><path class="cls-40" d="M8.17,3.7a7.39,7.39,0,0,0-3.53,3,7.14,7.14,0,0,0-.9,3.07c-.19,1.16-1,9.67-1,9.67V56.17c0,1.54,1.11,2,2.45,2.39,4.11,1,13.2,1,17.23,0,1.3-.35,2.33-.87,2.33-2.36V19.43s-.82-8.51-1-9.67a7.14,7.14,0,0,0-.9-3.07,7.37,7.37,0,0,0-3.54-3A20.4,20.4,0,0,0,8.17,3.7Z"/><path class="cls-41" d="M8.2,3.75a7.33,7.33,0,0,0-3.53,3A7.19,7.19,0,0,0,3.78,9.8c-.19,1.15-1,9.65-1,9.65V56.11c0,1.54,1.1,2,2.43,2.38,4.1,1,13.15,1,17.16,0,1.3-.34,2.32-.86,2.32-2.35V19.45s-.81-8.5-1-9.65a7.06,7.06,0,0,0-.9-3.06,7.26,7.26,0,0,0-3.52-3A20.22,20.22,0,0,0,8.2,3.75Z"/><path class="cls-42" d="M8.22,3.8a7.36,7.36,0,0,0-3.51,3,7,7,0,0,0-.88,3.06c-.2,1.14-1,9.62-1,9.62V56c0,1.54,1.1,2,2.43,2.38,4.08,1,13.09,1,17.08,0,1.3-.34,2.32-.86,2.32-2.35V19.46s-.81-8.48-1-9.62a7,7,0,0,0-.88-3.06,7.36,7.36,0,0,0-3.51-3A20.07,20.07,0,0,0,8.22,3.8Z"/><path class="cls-43" d="M8.24,3.85a7.23,7.23,0,0,0-3.49,3,7,7,0,0,0-.88,3c-.19,1.15-1,9.61-1,9.61V56c0,1.53,1.09,2,2.41,2.37,4.07,1,13,1,17,0,1.28-.34,2.3-.86,2.3-2.34V19.48s-.81-8.46-1-9.61a7,7,0,0,0-.88-3,7.22,7.22,0,0,0-3.5-3A19.89,19.89,0,0,0,8.24,3.85Z"/><path class="cls-44" d="M19.86,56.55h4.68V58.3a4.16,4.16,0,0,1-1.78.84,20.11,20.11,0,0,1-2.9.52Z"/><path class="cls-45" d="M2.93,56.55H7.61v3.11a20.49,20.49,0,0,1-2.78-.49,4.29,4.29,0,0,1-1.9-.87Z"/><path class="cls-46" d="M25.16,17s0,.71.25.81c.88.38,1.85.76,2.08,1.78a.2.2,0,0,1-.06.18.19.19,0,0,1-.18,0l-1.75-.52-.15-.4-.27-.13Z"/><path class="cls-47" d="M25.07,18.08A16.31,16.31,0,0,1,27,19a1.43,1.43,0,0,1,.43.51.18.18,0,0,1,0,.2.17.17,0,0,1-.19.05l-1.74-.53-.15-.4-.27-.13Z"/><path class="cls-48" d="M2.33,17s0,.71-.25.81c-.88.38-1.85.76-2.08,1.78a.2.2,0,0,0,.06.18.19.19,0,0,0,.18,0L2,19.25l.15-.4.27-.13Z"/><path class="cls-47" d="M2.42,18.08a16.31,16.31,0,0,0-2,.94,1.43,1.43,0,0,0-.43.51.18.18,0,0,0,0,.2.17.17,0,0,0,.19.05L2,19.25l.15-.4.27-.13Z"/><path class="cls-43" d="M8,.9A7.7,7.7,0,0,0,4.26,4.06,7.69,7.69,0,0,0,3.33,7.3c-.2,1.21-1.05,10.2-1.05,10.2V56.25c0,1.63,1.15,2.16,2.55,2.52,4.28,1.1,13.74,1.09,17.93,0,1.36-.37,2.43-.92,2.43-2.49V17.5s-.85-9-1.05-10.2a7.56,7.56,0,0,0-.94-3.24A7.67,7.67,0,0,0,19.52.9,21.06,21.06,0,0,0,8,.9Z"/><path class="cls-49" d="M8,1A7.82,7.82,0,0,0,4.26,4.13a8.57,8.57,0,0,0-.93,3.46c-.2,1.21-1,10.11-1,10.11V56.25c0,1.57,1.11,2.1,2.44,2.47,4.15,1.15,14,1.14,18,0,1.3-.38,2.33-.92,2.33-2.44V17.7s-.79-8.89-1-10.11a8.57,8.57,0,0,0-.93-3.46A7.91,7.91,0,0,0,19.49,1,20.76,20.76,0,0,0,8,1Z"/><path class="cls-50" d="M8,1A7.84,7.84,0,0,0,4.26,4.2a9.62,9.62,0,0,0-.94,3.68c-.2,1.22-.92,10-.92,10V56.25c0,1.52,1.06,2,2.34,2.42,4,1.19,14.17,1.18,18.09,0,1.25-.39,2.24-.92,2.24-2.39V17.91s-.72-8.8-.92-10a9.67,9.67,0,0,0-.94-3.69A7.92,7.92,0,0,0,19.46,1,20.55,20.55,0,0,0,8,1Z"/><path class="cls-42" d="M8,1A8,8,0,0,0,4.26,4.27C3.58,5.32,3.51,7,3.31,8.18s-.85,9.94-.85,9.94V56.25c0,1.47,1,2,2.24,2.37,3.88,1.24,14.37,1.23,18.17,0,1.19-.39,2.14-.92,2.14-2.34V18.12s-.66-8.72-.86-9.93-.26-2.87-.94-3.92A8.16,8.16,0,0,0,19.43,1,20.52,20.52,0,0,0,8,1Z"/><path class="cls-51" d="M8.07,1.09A8,8,0,0,0,4.26,4.34c-.68,1-.75,2.92-.95,4.13s-.79,9.86-.79,9.86V56.25c0,1.41,1,1.92,2.13,2.32,3.75,1.28,14.59,1.28,18.26,0,1.13-.4,2-.92,2-2.29V18.33s-.59-8.63-.79-9.85-.27-3.09-.95-4.14A8.28,8.28,0,0,0,19.4,1.09,20.3,20.3,0,0,0,8.07,1.09Z"/><path class="cls-52" d="M8.1,1.13A8.27,8.27,0,0,0,4.25,4.41c-.67,1-.75,3.14-1,4.35s-.72,9.78-.72,9.78V56.25c0,1.36.93,1.86,2,2.27,3.62,1.33,14.79,1.33,18.34,0,1.07-.41,1.94-.92,1.94-2.24V18.54s-.53-8.54-.72-9.76-.29-3.32-1-4.37a8.47,8.47,0,0,0-3.84-3.28A20.37,20.37,0,0,0,8.1,1.13Z"/><path class="cls-41" d="M8.13,1.18a8.34,8.34,0,0,0-3.88,3.3c-.66,1-.76,3.36-1,4.58s-.67,9.69-.67,9.69v37.5c0,1.31.89,1.8,1.94,2.22,3.48,1.38,15,1.38,18.41,0,1-.42,1.86-.92,1.86-2.19V18.75s-.47-8.46-.67-9.67-.29-3.55-1-4.6a8.68,8.68,0,0,0-3.88-3.3C16.59.09,10.76.14,8.13,1.18Z"/><path class="cls-53" d="M8.16,1.23A8.41,8.41,0,0,0,4.25,4.55c-.66,1-.77,3.58-1,4.8s-.6,9.6-.6,9.6v37.3c0,1.25.85,1.74,1.83,2.16,3.36,1.44,15.21,1.44,18.5,0,1-.42,1.76-.92,1.76-2.14V19s-.4-8.36-.6-9.57-.3-3.78-1-4.83a8.81,8.81,0,0,0-3.91-3.32C16.58.14,10.75.2,8.16,1.23Z"/><path class="cls-54" d="M8.18,1.27A8.57,8.57,0,0,0,4.25,4.62c-.66,1-.77,3.81-1,5s-.53,9.52-.53,9.52V56.25c0,1.2.8,1.68,1.73,2.11,3.23,1.5,15.41,1.49,18.58,0,.91-.44,1.66-.93,1.66-2.1V19.16s-.34-8.27-.53-9.49-.31-4-1-5a9,9,0,0,0-3.94-3.35C16.56.19,10.75.25,8.18,1.27Z"/><path class="cls-40" d="M8.21,1.32a8.59,8.59,0,0,0-4,3.37c-.66,1-.78,4-1,5.24s-.47,9.44-.47,9.44V56.25c0,1.15.76,1.63,1.63,2.06,3.09,1.55,15.62,1.55,18.66,0,.85-.44,1.56-.94,1.56-2V19.37s-.27-8.19-.47-9.4-.31-4.23-1-5.28a9.13,9.13,0,0,0-4-3.37C16.55.23,10.74.31,8.21,1.32Z"/><path class="cls-55" d="M8.24,1.37a8.8,8.8,0,0,0-4,3.39c-.65,1-.78,4.25-1,5.47s-.4,9.35-.4,9.35V56.25c0,1.09.71,1.57,1.53,2,3,1.61,15.82,1.61,18.73,0a2.22,2.22,0,0,0,1.47-2V19.58s-.21-8.1-.4-9.31-.32-4.46-1-5.51a9.25,9.25,0,0,0-4-3.39C16.53.28,10.74.36,8.24,1.37Z"/><path class="cls-56" d="M8.27,1.41a8.89,8.89,0,0,0-4,3.42c-.65,1-.79,4.48-1,5.69s-.33,9.27-.33,9.27V56.25c0,1,.67,1.52,1.42,2,2.84,1.67,16,1.67,18.82,0a2.21,2.21,0,0,0,1.37-2V19.79s-.14-8-.33-9.23-.33-4.68-1-5.73a9.59,9.59,0,0,0-4-3.42C16.52.32,10.73.42,8.27,1.41Z"/><path class="cls-39" d="M8.3,1.46A9,9,0,0,0,4.24,4.9c-.64,1-.79,4.7-1,5.91S3,20,3,20V56.25a2.19,2.19,0,0,0,1.32,1.91c2.71,1.74,16.23,1.74,18.9,0a2.21,2.21,0,0,0,1.27-1.9V20s-.08-7.92-.27-9.13-.34-4.91-1-6a9.79,9.79,0,0,0-4.06-3.44C16.5.37,10.73.47,8.3,1.46Z"/><path class="cls-57" d="M8.33,1.5A9.11,9.11,0,0,0,4.24,5c-.64,1-.8,4.92-1,6.14s-.2,9.09-.2,9.09V56.25a2.2,2.2,0,0,0,1.22,1.86c2.57,1.8,16.44,1.8,19,0a2.2,2.2,0,0,0,1.17-1.85v-36s0-7.83-.2-9S23.87,6,23.23,5A9.94,9.94,0,0,0,19.14,1.5C16.49.42,10.72.53,8.33,1.5Z"/><path class="cls-58" d="M8.36,1.55A9.24,9.24,0,0,0,4.24,5c-.64,1-.81,5.14-1,6.36s-.14,9-.14,9V56.25a2.23,2.23,0,0,0,1.12,1.81c2.45,1.88,16.66,1.88,19.06,0a2.22,2.22,0,0,0,1.09-1.8V20.41s0-7.74-.15-9-.35-5.36-1-6.41a10.14,10.14,0,0,0-4.12-3.49C16.47.46,10.72.58,8.36,1.55Z"/><path class="cls-38" d="M8.39,1.6A9.25,9.25,0,0,0,4.24,5.11c-.64,1-.82,5.37-1,6.58s-.08,8.93-.08,8.93V56.25a2.25,2.25,0,0,0,1,1.76c2.31,2,16.87,2,19.14,0a2.24,2.24,0,0,0,1-1.75V20.62s.11-7.66-.08-8.87-.36-5.59-1-6.64A10.28,10.28,0,0,0,19.08,1.6C16.46.51,10.72.64,8.39,1.6Z"/><path class="cls-59" d="M8.42,1.64A9.5,9.5,0,0,0,4.23,5.18c-.63,1.05-.81,5.59-1,6.8s0,8.85,0,8.85V56.25A2.28,2.28,0,0,0,4.14,58c2.16,2,17.08,2,19.22,0a2.32,2.32,0,0,0,.89-1.71V20.83s.17-7.57,0-8.78-.37-5.82-1-6.87a10.61,10.61,0,0,0-4.19-3.54C16.44.56,10.71.69,8.42,1.64Z"/><path class="cls-60" d="M8.45,1.69A9.57,9.57,0,0,0,4.23,5.25c-.63,1-.82,5.81-1,7s0,8.75,0,8.75V56.25a2.37,2.37,0,0,0,.81,1.66c2,2.12,17.31,2.12,19.31,0a2.43,2.43,0,0,0,.79-1.66V21s.24-7.47,0-8.69-.37-6-1-7.09A10.75,10.75,0,0,0,19,1.69C16.42.6,10.71.75,8.45,1.69Z"/><path class="cls-37" d="M8.48,1.74A9.64,9.64,0,0,0,4.23,5.32c-.62,1-.83,6-1,7.25s.12,8.67.12,8.67v35a2.49,2.49,0,0,0,.71,1.61c1.86,2.21,17.54,2.21,19.38,0a2.48,2.48,0,0,0,.7-1.61v-35s.3-7.39.12-8.6-.39-6.27-1-7.32A10.82,10.82,0,0,0,19,1.74C16.41.65,10.7.8,8.48,1.74Z"/><path class="cls-61" d="M8.51,1.78A9.73,9.73,0,0,0,4.23,5.39c-.62,1.05-.83,6.26-1,7.47s.19,8.59.19,8.59v34.8A2.66,2.66,0,0,0,4,57.81c1.69,2.31,17.78,2.31,19.46,0a2.66,2.66,0,0,0,.6-1.56V21.45s.37-7.3.19-8.51-.4-6.5-1-7.55A11,11,0,0,0,19,1.78C16.39.69,10.7.86,8.51,1.78Z"/><path class="cls-62" d="M8.54,1.83A9.8,9.8,0,0,0,4.23,5.46c-.62,1-.84,6.48-1,7.7s.25,8.5.25,8.5V56.25A2.82,2.82,0,0,0,4,57.76c1.51,2.41,18,2.41,19.54,0a2.89,2.89,0,0,0,.5-1.51V21.66s.43-7.21.25-8.43-.4-6.72-1-7.77a11.19,11.19,0,0,0-4.31-3.63C16.38.74,10.69.91,8.54,1.83Z"/><path class="cls-36" d="M8.57,1.87A10,10,0,0,0,4.22,5.53c-.61,1-.84,6.71-1,7.92s.32,8.42.32,8.42V56.25a3.35,3.35,0,0,0,.4,1.46c1.32,2.5,18.31,2.5,19.63,0a3.35,3.35,0,0,0,.4-1.46V21.87s.5-7.13.32-8.34-.41-6.95-1-8A11.47,11.47,0,0,0,18.9,1.87C16.36.79,10.69,1,8.57,1.87Z"/><path class="cls-22" d="M8.57,1.87A10,10,0,0,0,4.22,5.53c-.61,1-.7,6.71-.88,7.92s.08,8.42.08,8.42.1,33.56.1,34.61a2.1,2.1,0,0,0,1.59,2.23c3.47,1.22,13.16,1.25,17,.09A2.19,2.19,0,0,0,24,56.48c0-1,.12-34.61.12-34.61s.27-7.13.08-8.34-.29-6.95-.9-8A11.47,11.47,0,0,0,18.9,1.87C16.36.79,10.69,1,8.57,1.87Z"/><path class="cls-63" d="M2.28,18.4a9.06,9.06,0,0,1,.39,2c0,1.23,0,9.69,0,9.69H2.28Z"/><rect x="2.28" y="32.23" width="0.4" height="11.9"/><rect x="2.28" y="45.42" width="0.4" height="10.06"/><path class="cls-63" d="M25.19,18.4a9.06,9.06,0,0,0-.39,2c0,1.23,0,9.69,0,9.69h.39Z"/><rect x="24.79" y="32.23" width="0.4" height="11.9"/><rect x="24.79" y="45.42" width="0.4" height="10.06"/><path class="cls-1" d="M8.57,2.06A10,10,0,0,0,4.22,5.57,2.59,2.59,0,0,0,4,6,10.93,10.93,0,0,1,8.32,2.78c2.22-.91,8.17-1.09,10.83,0a12.49,12.49,0,0,1,4.28,3.29,2,2,0,0,0-.18-.5A11.42,11.42,0,0,0,18.9,2.06C16.36,1,10.69,1.19,8.57,2.06Z"/><path class="cls-64" d="M8.57,2.09A9.85,9.85,0,0,0,4.22,5.6,1.73,1.73,0,0,0,4,6.08,10.81,10.81,0,0,1,8.31,2.81c2.23-.91,8.18-1.09,10.84,0A12.53,12.53,0,0,1,23.44,6.1a2.29,2.29,0,0,0-.19-.5A11.34,11.34,0,0,0,18.9,2.09C16.37,1,10.68,1.22,8.57,2.09Z"/><path class="cls-2" d="M8.57,2.12A9.89,9.89,0,0,0,4.21,5.64,2.45,2.45,0,0,0,4,6.12,10.77,10.77,0,0,1,8.31,2.84c2.22-.92,8.19-1.1,10.85,0a12.48,12.48,0,0,1,4.28,3.3,1.63,1.63,0,0,0-.19-.5A11.26,11.26,0,0,0,18.9,2.12C16.37,1.07,10.68,1.24,8.57,2.12Z"/><path class="cls-65" d="M8.56,2.14A9.87,9.87,0,0,0,4.21,5.67,1.73,1.73,0,0,0,4,6.15,10.61,10.61,0,0,1,8.31,2.87c2.22-.92,8.19-1.11,10.85,0a12.45,12.45,0,0,1,4.29,3.31,2.2,2.2,0,0,0-.19-.51,11.45,11.45,0,0,0-4.35-3.53C16.37,1.09,10.68,1.26,8.56,2.14Z"/><path class="cls-3" d="M8.56,2.17A9.88,9.88,0,0,0,4.21,5.71,1.9,1.9,0,0,0,4,6.19a10.84,10.84,0,0,1,4.29-3.3c2.22-.92,8.19-1.1,10.85,0a12.59,12.59,0,0,1,4.29,3.32,1.63,1.63,0,0,0-.19-.5,11.29,11.29,0,0,0-4.35-3.54C16.37,1.11,10.68,1.29,8.56,2.17Z"/><path class="cls-66" d="M8.56,2.19A10,10,0,0,0,4.2,5.74,1.73,1.73,0,0,0,4,6.22,10.72,10.72,0,0,1,8.3,2.92c2.23-.92,8.2-1.11,10.86,0a12.53,12.53,0,0,1,4.3,3.33,2.2,2.2,0,0,0-.19-.51,11.52,11.52,0,0,0-4.36-3.55C16.37,1.14,10.68,1.31,8.56,2.19Z"/><path class="cls-4" d="M8.56,2.22A9.81,9.81,0,0,0,4.2,5.78,1.9,1.9,0,0,0,4,6.26,10.76,10.76,0,0,1,8.3,3C10.53,2,16.5,1.84,19.17,3a12.49,12.49,0,0,1,4.29,3.33,1.63,1.63,0,0,0-.19-.5,11.29,11.29,0,0,0-4.36-3.56C16.37,1.16,10.68,1.33,8.56,2.22Z"/><path class="cls-67" d="M8.55,2.24A10,10,0,0,0,4.19,5.81,1.73,1.73,0,0,0,4,6.29,10.85,10.85,0,0,1,8.3,3c2.23-.93,8.2-1.12,10.87,0a12.65,12.65,0,0,1,4.3,3.34,2.2,2.2,0,0,0-.19-.51,11.55,11.55,0,0,0-4.36-3.57C16.37,1.18,10.68,1.36,8.55,2.24Z"/><path class="cls-5" d="M8.55,2.27A9.94,9.94,0,0,0,4.19,5.84,2.18,2.18,0,0,0,4,6.33,10.74,10.74,0,0,1,8.3,3c2.22-.94,8.2-1.12,10.87,0a12.46,12.46,0,0,1,4.3,3.34,2.4,2.4,0,0,0-.19-.51,11.38,11.38,0,0,0-4.36-3.57C16.37,1.21,10.67,1.38,8.55,2.27Z"/><path class="cls-68" d="M8.55,2.3A10,10,0,0,0,4.18,5.88,1.69,1.69,0,0,0,4,6.37,10.8,10.8,0,0,1,8.29,3c2.23-.93,8.21-1.12,10.88,0a12.64,12.64,0,0,1,4.31,3.36,2.2,2.2,0,0,0-.19-.51A11.43,11.43,0,0,0,18.92,2.3C16.38,1.23,10.67,1.4,8.55,2.3Z"/><path class="cls-6" d="M8.55,2.32A9.94,9.94,0,0,0,4.18,5.91,2.18,2.18,0,0,0,4,6.4a10.85,10.85,0,0,1,4.3-3.34c2.23-.94,8.22-1.12,10.89,0a12.62,12.62,0,0,1,4.3,3.37,2.31,2.31,0,0,0-.19-.52,11.54,11.54,0,0,0-4.37-3.59C16.38,1.25,10.67,1.43,8.55,2.32Z"/><path class="cls-69" d="M8.54,2.35A10,10,0,0,0,4.17,6,2,2,0,0,0,4,6.44a10.78,10.78,0,0,1,4.3-3.35c2.23-.94,8.22-1.13,10.89,0a12.66,12.66,0,0,1,4.31,3.37A2.2,2.2,0,0,0,23.3,6a11.54,11.54,0,0,0-4.37-3.6C16.38,1.27,10.67,1.45,8.54,2.35Z"/><path class="cls-7" d="M8.54,2.37A10,10,0,0,0,4.17,6,2.18,2.18,0,0,0,4,6.47,10.82,10.82,0,0,1,8.29,3.12c2.23-1,8.22-1.13,10.89,0A12.35,12.35,0,0,1,23.49,6.5,2.31,2.31,0,0,0,23.3,6a11.48,11.48,0,0,0-4.37-3.61C16.38,1.3,10.67,1.48,8.54,2.37Z"/><path class="cls-70" d="M8.54,2.4A10.07,10.07,0,0,0,4.16,6,2.59,2.59,0,0,0,4,6.51a10.89,10.89,0,0,1,4.3-3.37c2.24-.94,8.23-1.13,10.9,0A12.74,12.74,0,0,1,23.5,6.53,2,2,0,0,0,23.31,6,11.54,11.54,0,0,0,18.93,2.4C16.38,1.32,10.67,1.5,8.54,2.4Z"/><path class="cls-8" d="M8.54,2.42A10.14,10.14,0,0,0,4.16,6.05a2.1,2.1,0,0,0-.19.5A10.85,10.85,0,0,1,8.28,3.17c2.23-.95,8.23-1.13,10.91,0a12.6,12.6,0,0,1,4.31,3.4,2.31,2.31,0,0,0-.19-.52,11.64,11.64,0,0,0-4.38-3.63C16.38,1.34,10.67,1.52,8.54,2.42Z"/><path class="cls-71" d="M8.53,2.45A10,10,0,0,0,4.15,6.09,2.59,2.59,0,0,0,4,6.58,10.85,10.85,0,0,1,8.28,3.2c2.23-1,8.23-1.14,10.91,0a12.55,12.55,0,0,1,4.32,3.41,1.94,1.94,0,0,0-.2-.52,11.45,11.45,0,0,0-4.37-3.64C16.38,1.37,10.66,1.55,8.53,2.45Z"/><path class="cls-9" d="M8.53,2.48A10,10,0,0,0,4.15,6.12a1.77,1.77,0,0,0-.18.5A10.79,10.79,0,0,1,8.28,3.23c2.23-1,8.23-1.14,10.91,0a12.67,12.67,0,0,1,4.32,3.41,2.31,2.31,0,0,0-.19-.52,11.48,11.48,0,0,0-4.38-3.64C16.38,1.39,10.66,1.57,8.53,2.48Z"/><path class="cls-72" d="M8.53,2.5A10,10,0,0,0,4.15,6.16,2,2,0,0,0,4,6.65a11,11,0,0,1,4.31-3.4c2.24-1,8.25-1.14,10.93,0a12.57,12.57,0,0,1,4.31,3.43,1.68,1.68,0,0,0-.19-.52A11.43,11.43,0,0,0,18.94,2.5C16.39,1.41,10.66,1.59,8.53,2.5Z"/><path class="cls-10" d="M8.53,2.53A10.08,10.08,0,0,0,4.14,6.19a1.9,1.9,0,0,0-.18.5A10.89,10.89,0,0,1,8.27,3.28c2.24-.95,8.25-1.14,10.93,0a12.71,12.71,0,0,1,4.32,3.43,2.31,2.31,0,0,0-.19-.52,11.56,11.56,0,0,0-4.39-3.66C16.39,1.44,10.66,1.62,8.53,2.53Z"/><path class="cls-73" d="M8.52,2.55A10.13,10.13,0,0,0,4.14,6.23,2,2,0,0,0,4,6.72,11,11,0,0,1,8.27,3.31c2.24-1,8.25-1.15,10.93,0a12.64,12.64,0,0,1,4.32,3.44,1.68,1.68,0,0,0-.19-.52A11.63,11.63,0,0,0,19,2.55C16.39,1.46,10.66,1.64,8.52,2.55Z"/><path class="cls-11" d="M8.52,2.58A10,10,0,0,0,4.13,6.26a1.9,1.9,0,0,0-.18.5A10.9,10.9,0,0,1,8.26,3.34c2.25-1,8.26-1.15,10.94,0a12.58,12.58,0,0,1,4.33,3.45,2.24,2.24,0,0,0-.19-.53A11.58,11.58,0,0,0,19,2.58C16.39,1.48,10.66,1.66,8.52,2.58Z"/><path class="cls-74" d="M8.52,2.6A10.11,10.11,0,0,0,4.13,6.29a2.2,2.2,0,0,0-.19.51A11,11,0,0,1,8.26,3.36c2.24-1,8.26-1.15,11,0a12.78,12.78,0,0,1,4.32,3.46,1.87,1.87,0,0,0-.19-.53A11.61,11.61,0,0,0,19,2.6C16.39,1.51,10.66,1.69,8.52,2.6Z"/><path class="cls-12" d="M8.52,2.66a10.06,10.06,0,0,0-4.39,3.7,2.1,2.1,0,0,0-.19.5A11,11,0,0,1,8.26,3.42c2.24-1,8.26-1.15,11,0a12.68,12.68,0,0,1,4.32,3.47,1.87,1.87,0,0,0-.19-.53A11.54,11.54,0,0,0,19,2.66C16.39,1.56,10.66,1.74,8.52,2.66Z"/><path class="cls-75" d="M8.52,2.72a10.06,10.06,0,0,0-4.39,3.7,2.29,2.29,0,0,0-.19.5A11.06,11.06,0,0,1,8.26,3.48c2.24-1,8.26-1.16,11,0A12.8,12.8,0,0,1,23.53,7a1.87,1.87,0,0,0-.19-.53A11.54,11.54,0,0,0,19,2.72C16.39,1.61,10.66,1.8,8.52,2.72Z"/><path class="cls-13" d="M8.52,2.77A10.2,10.2,0,0,0,4.13,6.48,2.2,2.2,0,0,0,3.94,7,11,11,0,0,1,8.26,3.54c2.24-1,8.26-1.16,11,0A12.68,12.68,0,0,1,23.53,7a2,2,0,0,0-.19-.53A11.64,11.64,0,0,0,19,2.77C16.39,1.67,10.66,1.85,8.52,2.77Z"/><path class="cls-76" d="M8.52,2.83A10.08,10.08,0,0,0,4.13,6.55a2.1,2.1,0,0,0-.19.5A11,11,0,0,1,8.26,3.6c2.24-1,8.26-1.17,11,0a12.59,12.59,0,0,1,4.32,3.48,1.87,1.87,0,0,0-.19-.53A11.57,11.57,0,0,0,19,2.83C16.39,1.72,10.66,1.91,8.52,2.83Z"/><path class="cls-14" d="M8.52,2.89A10.08,10.08,0,0,0,4.13,6.61a2.2,2.2,0,0,0-.19.51A11,11,0,0,1,8.26,3.65c2.24-1,8.26-1.16,11,0a12.73,12.73,0,0,1,4.32,3.49,1.87,1.87,0,0,0-.19-.53A11.57,11.57,0,0,0,19,2.89C16.39,1.78,10.66,2,8.52,2.89Z"/><path class="cls-77" d="M8.52,2.94A10.16,10.16,0,0,0,4.13,6.67a2.2,2.2,0,0,0-.19.51A10.92,10.92,0,0,1,8.26,3.71c2.24-1,8.26-1.16,11,0a12.75,12.75,0,0,1,4.32,3.5,2.08,2.08,0,0,0-.19-.54A11.67,11.67,0,0,0,19,2.94C16.39,1.83,10.66,2,8.52,2.94Z"/><path class="cls-15" d="M8.52,3A10.1,10.1,0,0,0,4.13,6.74a2.2,2.2,0,0,0-.19.51A10.93,10.93,0,0,1,8.26,3.77c2.24-1,8.26-1.17,11,0a12.75,12.75,0,0,1,4.32,3.5,1.87,1.87,0,0,0-.19-.53A11.6,11.6,0,0,0,19,3C16.39,1.89,10.66,2.07,8.52,3Z"/><path class="cls-78" d="M8.52,3.06A10.1,10.1,0,0,0,4.13,6.8a2.2,2.2,0,0,0-.19.51A10.93,10.93,0,0,1,8.26,3.83c2.24-1,8.26-1.17,11,0a12.66,12.66,0,0,1,4.32,3.51,2,2,0,0,0-.19-.54A11.52,11.52,0,0,0,19,3.06C16.39,1.94,10.66,2.13,8.52,3.06Z"/><path class="cls-16" d="M8.52,3.11A10.18,10.18,0,0,0,4.13,6.86a2.4,2.4,0,0,0-.19.51A10.93,10.93,0,0,1,8.26,3.89c2.24-1,8.26-1.18,11,0A12.66,12.66,0,0,1,23.53,7.4a2.08,2.08,0,0,0-.19-.54A11.62,11.62,0,0,0,19,3.11C16.39,2,10.66,2.18,8.52,3.11Z"/><path class="cls-79" d="M8.52,3.17A10.12,10.12,0,0,0,4.13,6.93a2.2,2.2,0,0,0-.19.51,11,11,0,0,1,4.32-3.5c2.24-1,8.26-1.17,11,0a12.79,12.79,0,0,1,4.32,3.52,1.87,1.87,0,0,0-.19-.53A11.63,11.63,0,0,0,19,3.17C16.39,2.05,10.66,2.24,8.52,3.17Z"/><path class="cls-17" d="M8.52,3.23A10.12,10.12,0,0,0,4.13,7a2.2,2.2,0,0,0-.19.51A11,11,0,0,1,8.26,4c2.24-1,8.26-1.17,11,0a12.82,12.82,0,0,1,4.32,3.53A2,2,0,0,0,23.34,7,11.63,11.63,0,0,0,19,3.23C16.39,2.11,10.66,2.29,8.52,3.23Z"/><path class="cls-80" d="M8.52,3.28A10.2,10.2,0,0,0,4.13,7.05a2.31,2.31,0,0,0-.19.52A10.9,10.9,0,0,1,8.26,4.06c2.24-1,8.26-1.18,11,0a12.82,12.82,0,0,1,4.32,3.53,2.08,2.08,0,0,0-.19-.54A11.74,11.74,0,0,0,19,3.28C16.39,2.16,10.66,2.35,8.52,3.28Z"/><path class="cls-18" d="M8.52,3.34A10.15,10.15,0,0,0,4.13,7.12a2.2,2.2,0,0,0-.19.51A10.9,10.9,0,0,1,8.26,4.12c2.24-1,8.26-1.18,11,0a12.72,12.72,0,0,1,4.32,3.54,2,2,0,0,0-.19-.54A11.58,11.58,0,0,0,19,3.34C16.39,2.22,10.66,2.4,8.52,3.34Z"/><path class="cls-81" d="M8.52,3.4A10.15,10.15,0,0,0,4.13,7.18a2.31,2.31,0,0,0-.19.52A10.93,10.93,0,0,1,8.26,4.17c2.24-1,8.26-1.18,11,0a12.86,12.86,0,0,1,4.32,3.55,2,2,0,0,0-.19-.54A11.58,11.58,0,0,0,19,3.4C16.39,2.27,10.66,2.46,8.52,3.4Z"/><path class="cls-19" d="M8.52,3.45A10.22,10.22,0,0,0,4.13,7.24a2.31,2.31,0,0,0-.19.52A10.93,10.93,0,0,1,8.26,4.23c2.24-1,8.26-1.18,11,0a12.89,12.89,0,0,1,4.32,3.56,2,2,0,0,0-.19-.55A11.69,11.69,0,0,0,19,3.45C16.39,2.32,10.66,2.51,8.52,3.45Z"/><path class="cls-82" d="M8.52,3.51a10.1,10.1,0,0,0-4.39,3.8,2.2,2.2,0,0,0-.19.51A11,11,0,0,1,8.26,4.29c2.24-1,8.26-1.19,11,0a12.77,12.77,0,0,1,4.32,3.56,2,2,0,0,0-.19-.54A11.62,11.62,0,0,0,19,3.51C16.39,2.38,10.66,2.57,8.52,3.51Z"/><path class="cls-20" d="M8.52,3.57a10.17,10.17,0,0,0-4.39,3.8,2.31,2.31,0,0,0-.19.52A10.94,10.94,0,0,1,8.26,4.35c2.24-1,8.26-1.19,11,0a12.77,12.77,0,0,1,4.32,3.56,2,2,0,0,0-.19-.54A11.7,11.7,0,0,0,19,3.57C16.39,2.43,10.66,2.62,8.52,3.57Z"/><path class="cls-20" d="M8.52,3.62A10.24,10.24,0,0,0,4.13,7.43,2.31,2.31,0,0,0,3.94,8,10.94,10.94,0,0,1,8.26,4.41c2.24-1,8.26-1.19,11,0A12.68,12.68,0,0,1,23.53,8a2,2,0,0,0-.19-.55A11.72,11.72,0,0,0,19,3.62C16.39,2.49,10.66,2.68,8.52,3.62Z"/><path class="cls-21" d="M8.52,3.68A10.19,10.19,0,0,0,4.13,7.5,2.14,2.14,0,0,0,3.94,8,11,11,0,0,1,8.26,4.46c2.24-1,8.26-1.19,11,0A12.82,12.82,0,0,1,23.53,8a2,2,0,0,0-.19-.54A11.65,11.65,0,0,0,19,3.68C16.39,2.54,10.66,2.73,8.52,3.68Z"/><path class="cls-21" d="M8.52,3.74A10.19,10.19,0,0,0,4.13,7.56a2.31,2.31,0,0,0-.19.52A11.05,11.05,0,0,1,8.26,4.52c2.24-1,8.26-1.19,11,0a12.84,12.84,0,0,1,4.32,3.59,2,2,0,0,0-.19-.55A11.65,11.65,0,0,0,19,3.74C16.39,2.6,10.66,2.79,8.52,3.74Z"/><path class="cls-22" d="M8.52,3.79A10.27,10.27,0,0,0,4.13,7.62a2.24,2.24,0,0,0-.19.53A11,11,0,0,1,8.26,4.58c2.24-1,8.26-1.2,11,0a12.74,12.74,0,0,1,4.32,3.59,2.17,2.17,0,0,0-.19-.55A11.75,11.75,0,0,0,19,3.79C16.39,2.65,10.66,2.84,8.52,3.79Z"/><path class="cls-22" d="M17.58,1.68a21.5,21.5,0,0,1,4.86,7.75,32.84,32.84,0,0,1,1.47,4.62,27.24,27.24,0,0,0-2.08-7.73A16.71,16.71,0,0,0,17.58,1.68Z"/><path class="cls-83" d="M17.58,1.68a21.5,21.5,0,0,1,4.86,7.75,32.84,32.84,0,0,1,1.47,4.62A27.11,27.11,0,0,0,21.8,6.33,16.59,16.59,0,0,0,17.58,1.68Z"/><path class="cls-84" d="M17.58,1.68a21.5,21.5,0,0,1,4.86,7.75,32.84,32.84,0,0,1,1.47,4.62,27.48,27.48,0,0,0-2.14-7.72A16.86,16.86,0,0,0,17.58,1.68Z"/><path class="cls-85" d="M17.58,1.68a21.5,21.5,0,0,1,4.86,7.75,32.84,32.84,0,0,1,1.47,4.62,27.86,27.86,0,0,0-2.17-7.72A17.13,17.13,0,0,0,17.58,1.68Z"/><path class="cls-86" d="M17.58,1.68a21.5,21.5,0,0,1,4.86,7.75,32.84,32.84,0,0,1,1.47,4.62A27.22,27.22,0,0,0,21.7,6.33,17,17,0,0,0,17.58,1.68Z"/><path class="cls-87" d="M17.58,1.68a21.5,21.5,0,0,1,4.86,7.75,32.84,32.84,0,0,1,1.47,4.62,27.32,27.32,0,0,0-2.24-7.71A17,17,0,0,0,17.58,1.68Z"/><path class="cls-88" d="M17.58,1.68a21.5,21.5,0,0,1,4.86,7.75,32.84,32.84,0,0,1,1.47,4.62,27.81,27.81,0,0,0-2.27-7.71A17.11,17.11,0,0,0,17.58,1.68Z"/><path class="cls-89" d="M17.58,1.68a21.5,21.5,0,0,1,4.86,7.75,32.84,32.84,0,0,1,1.47,4.62,27.76,27.76,0,0,0-2.3-7.71A17,17,0,0,0,17.58,1.68Z"/><path class="cls-90" d="M17.58,1.68a21.5,21.5,0,0,1,4.86,7.75,32.84,32.84,0,0,1,1.47,4.62,27.73,27.73,0,0,0-2.34-7.7A17.12,17.12,0,0,0,17.58,1.68Z"/><path class="cls-91" d="M17.58,1.68a21.5,21.5,0,0,1,4.86,7.75,32.84,32.84,0,0,1,1.47,4.62,27.69,27.69,0,0,0-2.37-7.7A17,17,0,0,0,17.58,1.68Z"/><path class="cls-92" d="M17.58,1.68a21.5,21.5,0,0,1,4.86,7.75,32.84,32.84,0,0,1,1.47,4.62,28.09,28.09,0,0,0-2.4-7.7A17.26,17.26,0,0,0,17.58,1.68Z"/><path class="cls-93" d="M17.58,1.68a21.5,21.5,0,0,1,4.86,7.75,32.84,32.84,0,0,1,1.47,4.62,28.27,28.27,0,0,0-2.43-7.7A17.29,17.29,0,0,0,17.58,1.68Z"/><path class="cls-94" d="M17.58,1.68a21.5,21.5,0,0,1,4.86,7.75,32.84,32.84,0,0,1,1.47,4.62,28,28,0,0,0-2.47-7.69A16.82,16.82,0,0,0,17.58,1.68Z"/><path class="cls-95" d="M17.58,1.68a21.5,21.5,0,0,1,4.86,7.75,32.84,32.84,0,0,1,1.47,4.62,28.22,28.22,0,0,0-2.5-7.69A17,17,0,0,0,17.58,1.68Z"/><path class="cls-96" d="M17.58,1.68a21.5,21.5,0,0,1,4.86,7.75,32.84,32.84,0,0,1,1.47,4.62,28.19,28.19,0,0,0-2.53-7.69A17.05,17.05,0,0,0,17.58,1.68Z"/><path class="cls-97" d="M17.58,1.68a21.5,21.5,0,0,1,4.86,7.75,32.84,32.84,0,0,1,1.47,4.62,28.42,28.42,0,0,0-2.56-7.68A16.93,16.93,0,0,0,17.58,1.68Z"/><path class="cls-98" d="M17.58,1.68a21.5,21.5,0,0,1,4.86,7.75,32.84,32.84,0,0,1,1.47,4.62,28.16,28.16,0,0,0-2.6-7.68A16.7,16.7,0,0,0,17.58,1.68Z"/><path class="cls-99" d="M17.58,1.68a21.5,21.5,0,0,1,4.86,7.75,32.84,32.84,0,0,1,1.47,4.62,28.13,28.13,0,0,0-2.63-7.68C20.87,5.59,19.1,2.72,17.58,1.68Z"/><path class="cls-100" d="M17.58,1.68a21.5,21.5,0,0,1,4.86,7.75,32.84,32.84,0,0,1,1.47,4.62,28.15,28.15,0,0,0-2.66-7.67C20.85,5.62,19.11,2.74,17.58,1.68Z"/><path class="cls-101" d="M17.58,1.68a21.5,21.5,0,0,1,4.86,7.75,32.84,32.84,0,0,1,1.47,4.62,28.46,28.46,0,0,0-2.69-7.67C20.83,5.64,19.13,2.75,17.58,1.68Z"/><path class="cls-102" d="M17.58,1.68a21.5,21.5,0,0,1,4.86,7.75,32.84,32.84,0,0,1,1.47,4.62,28.21,28.21,0,0,0-2.73-7.67C20.8,5.67,19.15,2.77,17.58,1.68Z"/><path class="cls-103" d="M17.58,1.68a21.5,21.5,0,0,1,4.86,7.75,32.84,32.84,0,0,1,1.47,4.62,28.79,28.79,0,0,0-2.76-7.67C20.78,5.7,19.16,2.79,17.58,1.68Z"/><path class="cls-22" d="M9.91,1.68A21.5,21.5,0,0,0,5.05,9.43a32.84,32.84,0,0,0-1.47,4.62A27.24,27.24,0,0,1,5.66,6.32,16.71,16.71,0,0,1,9.91,1.68Z"/><path class="cls-104" d="M9.91,1.68A21.5,21.5,0,0,0,5.05,9.43a32.84,32.84,0,0,0-1.47,4.62A27.11,27.11,0,0,1,5.69,6.33,16.59,16.59,0,0,1,9.91,1.68Z"/><path class="cls-105" d="M9.91,1.68A21.5,21.5,0,0,0,5.05,9.43a32.84,32.84,0,0,0-1.47,4.62A27.48,27.48,0,0,1,5.72,6.33,16.86,16.86,0,0,1,9.91,1.68Z"/><path class="cls-106" d="M9.91,1.68A21.5,21.5,0,0,0,5.05,9.43a32.84,32.84,0,0,0-1.47,4.62A27.86,27.86,0,0,1,5.75,6.33,17.13,17.13,0,0,1,9.91,1.68Z"/><path class="cls-107" d="M9.91,1.68A21.5,21.5,0,0,0,5.05,9.43a32.84,32.84,0,0,0-1.47,4.62A27.22,27.22,0,0,1,5.79,6.33,17,17,0,0,1,9.91,1.68Z"/><path class="cls-108" d="M9.91,1.68A21.5,21.5,0,0,0,5.05,9.43a32.84,32.84,0,0,0-1.47,4.62A27.32,27.32,0,0,1,5.82,6.34,17,17,0,0,1,9.91,1.68Z"/><path class="cls-109" d="M9.91,1.68A21.5,21.5,0,0,0,5.05,9.43a32.84,32.84,0,0,0-1.47,4.62A27.81,27.81,0,0,1,5.85,6.34,17.11,17.11,0,0,1,9.91,1.68Z"/><path class="cls-110" d="M9.91,1.68A21.5,21.5,0,0,0,5.05,9.43a32.84,32.84,0,0,0-1.47,4.62,27.43,27.43,0,0,1,2.3-7.71A17,17,0,0,1,9.91,1.68Z"/><path class="cls-111" d="M9.91,1.68A21.5,21.5,0,0,0,5.05,9.43a32.84,32.84,0,0,0-1.47,4.62,27.73,27.73,0,0,1,2.34-7.7A17.12,17.12,0,0,1,9.91,1.68Z"/><path class="cls-112" d="M9.91,1.68A21.5,21.5,0,0,0,5.05,9.43a32.84,32.84,0,0,0-1.47,4.62A27.69,27.69,0,0,1,6,6.35,17,17,0,0,1,9.91,1.68Z"/><path class="cls-113" d="M9.91,1.68A21.5,21.5,0,0,0,5.05,9.43a32.84,32.84,0,0,0-1.47,4.62A28.09,28.09,0,0,1,6,6.35,17.26,17.26,0,0,1,9.91,1.68Z"/><path class="cls-114" d="M9.91,1.68A21.5,21.5,0,0,0,5.05,9.43a32.84,32.84,0,0,0-1.47,4.62A28.27,28.27,0,0,1,6,6.35,17.29,17.29,0,0,1,9.91,1.68Z"/><path class="cls-115" d="M9.91,1.68A21.5,21.5,0,0,0,5.05,9.43a32.84,32.84,0,0,0-1.47,4.62A28,28,0,0,1,6.05,6.36,16.82,16.82,0,0,1,9.91,1.68Z"/><path class="cls-116" d="M9.91,1.68A21.5,21.5,0,0,0,5.05,9.43a32.84,32.84,0,0,0-1.47,4.62,28.22,28.22,0,0,1,2.5-7.69A17,17,0,0,1,9.91,1.68Z"/><path class="cls-117" d="M9.91,1.68A21.5,21.5,0,0,0,5.05,9.43a32.84,32.84,0,0,0-1.47,4.62A28.19,28.19,0,0,1,6.11,6.36,17.05,17.05,0,0,1,9.91,1.68Z"/><path class="cls-118" d="M9.91,1.68A21.5,21.5,0,0,0,5.05,9.43a32.84,32.84,0,0,0-1.47,4.62A28.42,28.42,0,0,1,6.14,6.37,16.93,16.93,0,0,1,9.91,1.68Z"/><path class="cls-119" d="M9.91,1.68A21.5,21.5,0,0,0,5.05,9.43a32.84,32.84,0,0,0-1.47,4.62,28.16,28.16,0,0,1,2.6-7.68A16.7,16.7,0,0,1,9.91,1.68Z"/><path class="cls-120" d="M9.91,1.68A21.5,21.5,0,0,0,5.05,9.43a32.84,32.84,0,0,0-1.47,4.62A28.13,28.13,0,0,1,6.21,6.37C6.62,5.59,8.39,2.72,9.91,1.68Z"/><path class="cls-121" d="M9.91,1.68A21.5,21.5,0,0,0,5.05,9.43a32.84,32.84,0,0,0-1.47,4.62A28.15,28.15,0,0,1,6.24,6.38C6.64,5.62,8.38,2.74,9.91,1.68Z"/><path class="cls-122" d="M9.91,1.68A21.5,21.5,0,0,0,5.05,9.43a32.84,32.84,0,0,0-1.47,4.62A28.58,28.58,0,0,1,6.27,6.38C6.66,5.64,8.36,2.75,9.91,1.68Z"/><path class="cls-123" d="M9.91,1.68A21.5,21.5,0,0,0,5.05,9.43a32.84,32.84,0,0,0-1.47,4.62A28.21,28.21,0,0,1,6.31,6.38C6.69,5.67,8.34,2.77,9.91,1.68Z"/><path class="cls-124" d="M9.91,1.68A21.5,21.5,0,0,0,5.05,9.43a32.84,32.84,0,0,0-1.47,4.62A28.79,28.79,0,0,1,6.34,6.38C6.71,5.7,8.33,2.79,9.91,1.68Z"/><path class="cls-63" d="M18.29,1.84a49.51,49.51,0,0,0-9.11,0,8.3,8.3,0,0,1,2.19-.78,33.94,33.94,0,0,1,4.73,0A8.3,8.3,0,0,1,18.29,1.84Z"/><path class="cls-36" d="M6.42,28.73h0a.87.87,0,0,1,.88.88V57.28a.88.88,0,0,1-.88.89h0a.88.88,0,0,1-.88-.89V29.61A.87.87,0,0,1,6.42,28.73Z"/><path class="cls-125" d="M6.42,28.75h0a.87.87,0,0,1,.86.86V57.28a.87.87,0,0,1-.86.86h0a.87.87,0,0,1-.86-.86V29.61A.87.87,0,0,1,6.42,28.75Z"/><path class="cls-126" d="M6.42,28.78h0a.85.85,0,0,1,.84.84V57.28a.84.84,0,0,1-.84.83h0a.84.84,0,0,1-.84-.83V29.62A.85.85,0,0,1,6.42,28.78Z"/><path class="cls-34" d="M6.42,28.81h0a.81.81,0,0,1,.81.81V57.27a.82.82,0,0,1-.81.82h0a.82.82,0,0,1-.81-.82V29.62A.81.81,0,0,1,6.42,28.81Z"/><path class="cls-127" d="M6.42,28.83h0a.8.8,0,0,1,.79.79V57.27a.8.8,0,0,1-.79.79h0a.79.79,0,0,1-.79-.79V29.62A.79.79,0,0,1,6.42,28.83Z"/><path class="cls-128" d="M6.42,28.86h0a.77.77,0,0,1,.77.77V57.27a.77.77,0,0,1-.77.76h0a.77.77,0,0,1-.77-.76V29.63A.77.77,0,0,1,6.42,28.86Z"/><path class="cls-32" d="M6.42,28.89h0a.74.74,0,0,1,.74.74V57.26a.75.75,0,0,1-.74.75h0a.75.75,0,0,1-.74-.75V29.63A.74.74,0,0,1,6.42,28.89Z"/><path class="cls-129" d="M6.42,28.91h0a.72.72,0,0,1,.72.72V57.26a.72.72,0,0,1-.72.72h0a.72.72,0,0,1-.72-.72V29.63A.72.72,0,0,1,6.42,28.91Z"/><rect class="cls-130" x="5.72" y="28.94" width="1.39" height="29.02" rx="0.7"/><rect class="cls-131" x="5.75" y="28.96" width="1.35" height="28.96" rx="0.67"/><rect class="cls-132" x="5.77" y="28.99" width="1.3" height="28.91" rx="0.65"/><rect class="cls-133" x="5.79" y="29.02" width="1.25" height="28.86" rx="0.63"/><rect class="cls-134" x="5.82" y="29.04" width="1.2" height="28.8" rx="0.6"/><rect class="cls-135" x="5.84" y="29.07" width="1.16" height="28.75" rx="0.58"/><rect class="cls-136" x="5.86" y="29.1" width="1.11" height="28.7" rx="0.56"/><rect class="cls-137" x="5.89" y="29.12" width="1.06" height="28.65" rx="0.53"/><rect class="cls-138" x="5.91" y="29.15" width="1.02" height="28.59" rx="0.51"/><rect class="cls-139" x="5.93" y="29.18" width="0.97" height="28.54" rx="0.49"/><rect class="cls-140" x="5.96" y="29.2" width="0.92" height="28.49" rx="0.46"/><rect class="cls-141" x="5.98" y="29.23" width="0.88" height="28.44" rx="0.44"/><rect class="cls-142" x="6" y="29.25" width="0.83" height="28.38" rx="0.41"/><rect class="cls-143" x="6.03" y="29.28" width="0.78" height="28.33" rx="0.39"/><path class="cls-36" d="M9.35,28.73h0a.87.87,0,0,1,.88.88V57.28a.88.88,0,0,1-.88.89h0a.88.88,0,0,1-.88-.89V29.61A.87.87,0,0,1,9.35,28.73Z"/><path class="cls-125" d="M9.35,28.75h0a.87.87,0,0,1,.86.86V57.28a.87.87,0,0,1-.86.86h0a.87.87,0,0,1-.86-.86V29.61A.87.87,0,0,1,9.35,28.75Z"/><path class="cls-126" d="M9.35,28.78h0a.85.85,0,0,1,.84.84V57.28a.84.84,0,0,1-.84.83h0a.84.84,0,0,1-.84-.83V29.62A.85.85,0,0,1,9.35,28.78Z"/><path class="cls-34" d="M9.35,28.81h0a.81.81,0,0,1,.81.81V57.27a.82.82,0,0,1-.81.82h0a.82.82,0,0,1-.81-.82V29.62A.81.81,0,0,1,9.35,28.81Z"/><path class="cls-127" d="M9.35,28.83h0a.8.8,0,0,1,.79.79V57.27a.8.8,0,0,1-.79.79h0a.8.8,0,0,1-.79-.79V29.62A.8.8,0,0,1,9.35,28.83Z"/><path class="cls-128" d="M9.35,28.86h0a.77.77,0,0,1,.77.77V57.27a.77.77,0,0,1-.77.76h0a.77.77,0,0,1-.77-.76V29.63A.77.77,0,0,1,9.35,28.86Z"/><path class="cls-32" d="M9.35,28.89h0a.74.74,0,0,1,.74.74V57.26a.75.75,0,0,1-.74.75h0a.75.75,0,0,1-.74-.75V29.63A.74.74,0,0,1,9.35,28.89Z"/><path class="cls-129" d="M9.35,28.91h0a.72.72,0,0,1,.72.72V57.26a.72.72,0,0,1-.72.72h0a.72.72,0,0,1-.72-.72V29.63A.72.72,0,0,1,9.35,28.91Z"/><path class="cls-144" d="M9.35,28.94h0a.7.7,0,0,1,.7.69V57.26a.7.7,0,0,1-.7.69h0a.7.7,0,0,1-.7-.69V29.63A.7.7,0,0,1,9.35,28.94Z"/><path class="cls-30" d="M9.35,29h0a.68.68,0,0,1,.67.68V57.25a.68.68,0,0,1-.67.68h0a.68.68,0,0,1-.67-.68V29.64A.68.68,0,0,1,9.35,29Z"/><path class="cls-145" d="M9.35,29h0a.65.65,0,0,1,.65.65V57.25a.65.65,0,0,1-.65.65h0a.65.65,0,0,1-.65-.65V29.64A.65.65,0,0,1,9.35,29Z"/><path class="cls-146" d="M9.35,29h0a.63.63,0,0,1,.63.62V57.25a.63.63,0,0,1-.63.62h0a.63.63,0,0,1-.63-.62V29.64A.63.63,0,0,1,9.35,29Z"/><path class="cls-28" d="M9.35,29h0a.6.6,0,0,1,.6.61v27.6a.6.6,0,0,1-.6.6h0a.6.6,0,0,1-.6-.6V29.65A.6.6,0,0,1,9.35,29Z"/><path class="cls-147" d="M9.35,29.07h0a.58.58,0,0,1,.58.58V57.24a.58.58,0,0,1-.58.58h0a.58.58,0,0,1-.58-.58V29.65A.58.58,0,0,1,9.35,29.07Z"/><path class="cls-148" d="M9.35,29.1h0a.56.56,0,0,1,.56.55V57.24a.56.56,0,0,1-.56.56h0a.56.56,0,0,1-.56-.56V29.65A.56.56,0,0,1,9.35,29.1Z"/><path class="cls-26" d="M9.35,29.12h0a.54.54,0,0,1,.53.54V57.24a.53.53,0,0,1-.53.53h0a.53.53,0,0,1-.53-.53V29.66A.54.54,0,0,1,9.35,29.12Z"/><path class="cls-149" d="M9.35,29.15h0a.51.51,0,0,1,.51.51V57.23a.51.51,0,0,1-.51.51h0a.51.51,0,0,1-.51-.51V29.66A.51.51,0,0,1,9.35,29.15Z"/><path class="cls-150" d="M9.35,29.18h0a.48.48,0,0,1,.49.48V57.23a.49.49,0,0,1-.49.49h0a.49.49,0,0,1-.49-.49V29.66A.48.48,0,0,1,9.35,29.18Z"/><path class="cls-24" d="M9.35,29.2h0a.47.47,0,0,1,.46.46V57.23a.47.47,0,0,1-.46.46h0a.47.47,0,0,1-.46-.46V29.66A.47.47,0,0,1,9.35,29.2Z"/><path class="cls-151" d="M9.35,29.23h0a.44.44,0,0,1,.44.44V57.23a.44.44,0,0,1-.44.43h0a.44.44,0,0,1-.44-.43V29.67A.44.44,0,0,1,9.35,29.23Z"/><path class="cls-152" d="M9.35,29.25h0a.41.41,0,0,1,.41.42V57.22a.41.41,0,0,1-.41.42h0a.42.42,0,0,1-.42-.42V29.67A.42.42,0,0,1,9.35,29.25Z"/><path class="cls-22" d="M9.35,29.28h0a.39.39,0,0,1,.39.39V57.22a.39.39,0,0,1-.39.39h0A.39.39,0,0,1,9,57.22V29.67A.39.39,0,0,1,9.35,29.28Z"/><path class="cls-36" d="M12.28,28.73h0a.87.87,0,0,1,.88.88V57.28a.88.88,0,0,1-.88.89h0a.88.88,0,0,1-.88-.89V29.61A.87.87,0,0,1,12.28,28.73Z"/><path class="cls-125" d="M12.28,28.75h0a.87.87,0,0,1,.86.86V57.28a.87.87,0,0,1-.86.86h0a.87.87,0,0,1-.86-.86V29.61A.87.87,0,0,1,12.28,28.75Z"/><path class="cls-126" d="M12.28,28.78h0a.85.85,0,0,1,.84.84V57.28a.84.84,0,0,1-.84.83h0a.84.84,0,0,1-.84-.83V29.62A.85.85,0,0,1,12.28,28.78Z"/><path class="cls-34" d="M12.28,28.81h0a.81.81,0,0,1,.81.81V57.27a.82.82,0,0,1-.81.82h0a.82.82,0,0,1-.81-.82V29.62A.81.81,0,0,1,12.28,28.81Z"/><path class="cls-127" d="M12.28,28.83h0a.79.79,0,0,1,.79.79V57.27a.79.79,0,0,1-.79.79h0a.8.8,0,0,1-.79-.79V29.62A.8.8,0,0,1,12.28,28.83Z"/><path class="cls-128" d="M12.28,28.86h0a.77.77,0,0,1,.77.77V57.27a.77.77,0,0,1-.77.76h0a.77.77,0,0,1-.77-.76V29.63A.77.77,0,0,1,12.28,28.86Z"/><path class="cls-32" d="M12.28,28.89h0a.74.74,0,0,1,.74.74V57.26a.75.75,0,0,1-.74.75h0a.75.75,0,0,1-.74-.75V29.63A.74.74,0,0,1,12.28,28.89Z"/><path class="cls-129" d="M12.28,28.91h0a.72.72,0,0,1,.72.72V57.26a.72.72,0,0,1-.72.72h0a.72.72,0,0,1-.72-.72V29.63A.72.72,0,0,1,12.28,28.91Z"/><path class="cls-144" d="M12.28,28.94h0a.7.7,0,0,1,.7.69V57.26a.7.7,0,0,1-.7.69h0a.7.7,0,0,1-.7-.69V29.63A.7.7,0,0,1,12.28,28.94Z"/><path class="cls-30" d="M12.28,29h0a.68.68,0,0,1,.67.68V57.25a.68.68,0,0,1-.67.68h0a.68.68,0,0,1-.67-.68V29.64A.68.68,0,0,1,12.28,29Z"/><path class="cls-145" d="M12.28,29h0a.65.65,0,0,1,.65.65V57.25a.65.65,0,0,1-.65.65h0a.65.65,0,0,1-.65-.65V29.64A.65.65,0,0,1,12.28,29Z"/><path class="cls-146" d="M12.28,29h0a.63.63,0,0,1,.63.62V57.25a.63.63,0,0,1-.63.62h0a.63.63,0,0,1-.63-.62V29.64A.63.63,0,0,1,12.28,29Z"/><path class="cls-28" d="M12.28,29h0a.6.6,0,0,1,.6.61v27.6a.6.6,0,0,1-.6.6h0a.6.6,0,0,1-.6-.6V29.65A.6.6,0,0,1,12.28,29Z"/><path class="cls-147" d="M12.28,29.07h0a.58.58,0,0,1,.58.58V57.24a.58.58,0,0,1-.58.58h0a.58.58,0,0,1-.58-.58V29.65A.58.58,0,0,1,12.28,29.07Z"/><rect class="cls-136" x="11.73" y="29.1" width="1.11" height="28.7" rx="0.56"/><rect class="cls-137" x="11.75" y="29.12" width="1.06" height="28.65" rx="0.53"/><rect class="cls-138" x="11.77" y="29.15" width="1.02" height="28.59" rx="0.51"/><rect class="cls-139" x="11.8" y="29.18" width="0.97" height="28.54" rx="0.49"/><rect class="cls-140" x="11.82" y="29.2" width="0.92" height="28.49" rx="0.46"/><rect class="cls-141" x="11.84" y="29.23" width="0.88" height="28.44" rx="0.44"/><rect class="cls-142" x="11.87" y="29.25" width="0.83" height="28.38" rx="0.41"/><rect class="cls-143" x="11.89" y="29.28" width="0.78" height="28.33" rx="0.39"/><rect class="cls-153" x="14.33" y="28.73" width="1.77" height="29.44" rx="0.88"/><rect class="cls-154" x="14.35" y="28.75" width="1.72" height="29.39" rx="0.86"/><rect class="cls-155" x="14.37" y="28.78" width="1.67" height="29.33" rx="0.84"/><rect class="cls-156" x="14.4" y="28.81" width="1.63" height="29.28" rx="0.81"/><rect class="cls-157" x="14.42" y="28.83" width="1.58" height="29.23" rx="0.79"/><rect class="cls-158" x="14.44" y="28.86" width="1.53" height="29.17" rx="0.77"/><rect class="cls-159" x="14.47" y="28.89" width="1.49" height="29.12" rx="0.74"/><rect class="cls-160" x="14.49" y="28.91" width="1.44" height="29.07" rx="0.72"/><rect class="cls-130" x="14.52" y="28.94" width="1.39" height="29.02" rx="0.7"/><rect class="cls-131" x="14.54" y="28.96" width="1.35" height="28.96" rx="0.67"/><rect class="cls-132" x="14.56" y="28.99" width="1.3" height="28.91" rx="0.65"/><rect class="cls-133" x="14.59" y="29.02" width="1.25" height="28.86" rx="0.63"/><rect class="cls-134" x="14.61" y="29.04" width="1.21" height="28.8" rx="0.6"/><rect class="cls-135" x="14.63" y="29.07" width="1.16" height="28.75" rx="0.58"/><rect class="cls-136" x="14.66" y="29.1" width="1.11" height="28.7" rx="0.56"/><rect class="cls-137" x="14.68" y="29.12" width="1.06" height="28.65" rx="0.53"/><rect class="cls-138" x="14.7" y="29.15" width="1.02" height="28.59" rx="0.51"/><rect class="cls-139" x="14.73" y="29.18" width="0.97" height="28.54" rx="0.49"/><rect class="cls-140" x="14.75" y="29.2" width="0.92" height="28.49" rx="0.46"/><rect class="cls-141" x="14.77" y="29.23" width="0.88" height="28.44" rx="0.44"/><rect class="cls-142" x="14.8" y="29.25" width="0.83" height="28.38" rx="0.41"/><rect class="cls-143" x="14.82" y="29.28" width="0.78" height="28.33" rx="0.39"/><path class="cls-36" d="M18.14,28.73h0a.88.88,0,0,1,.89.88V57.28a.89.89,0,0,1-.89.89h0a.89.89,0,0,1-.88-.89V29.61A.88.88,0,0,1,18.14,28.73Z"/><path class="cls-125" d="M18.14,28.75h0a.86.86,0,0,1,.86.86V57.28a.86.86,0,0,1-.86.86h0a.87.87,0,0,1-.86-.86V29.61A.87.87,0,0,1,18.14,28.75Z"/><path class="cls-126" d="M18.14,28.78h0a.85.85,0,0,1,.84.84V57.28a.84.84,0,0,1-.84.83h0a.83.83,0,0,1-.83-.83V29.62A.84.84,0,0,1,18.14,28.78Z"/><path class="cls-34" d="M18.14,28.81h0a.82.82,0,0,1,.82.81V57.27a.82.82,0,0,1-.82.82h0a.82.82,0,0,1-.81-.82V29.62A.81.81,0,0,1,18.14,28.81Z"/><path class="cls-127" d="M18.14,28.83h0a.79.79,0,0,1,.79.79V57.27a.79.79,0,0,1-.79.79h0a.8.8,0,0,1-.79-.79V29.62A.8.8,0,0,1,18.14,28.83Z"/><path class="cls-128" d="M18.14,28.86h0a.77.77,0,0,1,.77.77V57.27a.77.77,0,0,1-.77.76h0a.76.76,0,0,1-.76-.76V29.63A.76.76,0,0,1,18.14,28.86Z"/><path class="cls-32" d="M18.14,28.89h0a.75.75,0,0,1,.75.74V57.26a.76.76,0,0,1-.75.75h0a.75.75,0,0,1-.74-.75V29.63A.74.74,0,0,1,18.14,28.89Z"/><path class="cls-129" d="M18.14,28.91h0a.72.72,0,0,1,.72.72V57.26a.72.72,0,0,1-.72.72h0a.72.72,0,0,1-.72-.72V29.63A.73.73,0,0,1,18.14,28.91Z"/><path class="cls-144" d="M18.14,28.94h0a.69.69,0,0,1,.7.69V57.26a.69.69,0,0,1-.7.69h0a.69.69,0,0,1-.69-.69V29.63A.69.69,0,0,1,18.14,28.94Z"/><path class="cls-30" d="M18.14,29h0a.68.68,0,0,1,.67.68V57.25a.68.68,0,0,1-.67.68h0a.68.68,0,0,1-.67-.68V29.64A.68.68,0,0,1,18.14,29Z"/><path class="cls-145" d="M18.14,29h0a.65.65,0,0,1,.65.65V57.25a.65.65,0,0,1-.65.65h0a.65.65,0,0,1-.65-.65V29.64A.65.65,0,0,1,18.14,29Z"/><path class="cls-146" d="M18.14,29h0a.63.63,0,0,1,.63.62V57.25a.63.63,0,0,1-.63.62h0a.62.62,0,0,1-.62-.62V29.64A.62.62,0,0,1,18.14,29Z"/><path class="cls-28" d="M18.14,29h0a.6.6,0,0,1,.6.61v27.6a.6.6,0,0,1-.6.6h0a.6.6,0,0,1-.6-.6V29.65A.6.6,0,0,1,18.14,29Z"/><path class="cls-147" d="M18.14,29.07h0a.58.58,0,0,1,.58.58V57.24a.58.58,0,0,1-.58.58h0a.58.58,0,0,1-.58-.58V29.65A.58.58,0,0,1,18.14,29.07Z"/><path class="cls-148" d="M18.14,29.1h0a.56.56,0,0,1,.56.55V57.24a.56.56,0,0,1-.56.56h0a.56.56,0,0,1-.55-.56V29.65A.55.55,0,0,1,18.14,29.1Z"/><path class="cls-26" d="M18.14,29.12h0a.54.54,0,0,1,.53.54V57.24a.53.53,0,0,1-.53.53h0a.53.53,0,0,1-.53-.53V29.66A.54.54,0,0,1,18.14,29.12Z"/><path class="cls-149" d="M18.14,29.15h0a.51.51,0,0,1,.51.51V57.23a.51.51,0,0,1-.51.51h0a.51.51,0,0,1-.51-.51V29.66A.51.51,0,0,1,18.14,29.15Z"/><path class="cls-150" d="M18.14,29.18h0a.48.48,0,0,1,.49.48V57.23a.49.49,0,0,1-.49.49h0a.49.49,0,0,1-.48-.49V29.66A.48.48,0,0,1,18.14,29.18Z"/><path class="cls-24" d="M18.14,29.2h0a.46.46,0,0,1,.46.46V57.23a.46.46,0,0,1-.46.46h0a.47.47,0,0,1-.46-.46V29.66A.47.47,0,0,1,18.14,29.2Z"/><path class="cls-151" d="M18.14,29.23h0a.44.44,0,0,1,.44.44V57.23a.44.44,0,0,1-.44.43h0a.44.44,0,0,1-.44-.43V29.67A.44.44,0,0,1,18.14,29.23Z"/><path class="cls-152" d="M18.14,29.25h0a.42.42,0,0,1,.42.42V57.22a.42.42,0,0,1-.42.42h0a.41.41,0,0,1-.41-.42V29.67A.41.41,0,0,1,18.14,29.25Z"/><path class="cls-22" d="M18.14,29.28h0a.39.39,0,0,1,.39.39V57.22a.39.39,0,0,1-.39.39h0a.4.4,0,0,1-.39-.39V29.67A.4.4,0,0,1,18.14,29.28Z"/><path class="cls-36" d="M21.07,28.73h0a.88.88,0,0,1,.89.88V57.28a.89.89,0,0,1-.89.89h0a.89.89,0,0,1-.88-.89V29.61A.88.88,0,0,1,21.07,28.73Z"/><path class="cls-125" d="M21.07,28.75h0a.86.86,0,0,1,.86.86V57.28a.86.86,0,0,1-.86.86h0a.87.87,0,0,1-.86-.86V29.61A.87.87,0,0,1,21.07,28.75Z"/><path class="cls-126" d="M21.07,28.78h0a.85.85,0,0,1,.84.84V57.28a.84.84,0,0,1-.84.83h0a.83.83,0,0,1-.83-.83V29.62A.84.84,0,0,1,21.07,28.78Z"/><path class="cls-34" d="M21.07,28.81h0a.82.82,0,0,1,.82.81V57.27a.82.82,0,0,1-.82.82h0a.82.82,0,0,1-.81-.82V29.62A.81.81,0,0,1,21.07,28.81Z"/><path class="cls-127" d="M21.07,28.83h0a.79.79,0,0,1,.79.79V57.27a.79.79,0,0,1-.79.79h0a.8.8,0,0,1-.79-.79V29.62A.8.8,0,0,1,21.07,28.83Z"/><path class="cls-128" d="M21.07,28.86h0a.77.77,0,0,1,.77.77V57.27a.77.77,0,0,1-.77.76h0a.76.76,0,0,1-.76-.76V29.63A.76.76,0,0,1,21.07,28.86Z"/><path class="cls-32" d="M21.07,28.89h0a.75.75,0,0,1,.75.74V57.26a.76.76,0,0,1-.75.75h0a.75.75,0,0,1-.74-.75V29.63A.74.74,0,0,1,21.07,28.89Z"/><path class="cls-129" d="M21.07,28.91h0a.72.72,0,0,1,.72.72V57.26a.72.72,0,0,1-.72.72h0a.72.72,0,0,1-.72-.72V29.63A.73.73,0,0,1,21.07,28.91Z"/><path class="cls-144" d="M21.07,28.94h0a.69.69,0,0,1,.7.69V57.26a.69.69,0,0,1-.7.69h0a.69.69,0,0,1-.69-.69V29.63A.69.69,0,0,1,21.07,28.94Z"/><path class="cls-30" d="M21.07,29h0a.69.69,0,0,1,.68.68V57.25a.69.69,0,0,1-.68.68h0a.68.68,0,0,1-.67-.68V29.64A.68.68,0,0,1,21.07,29Z"/><path class="cls-145" d="M21.07,29h0a.65.65,0,0,1,.65.65V57.25a.65.65,0,0,1-.65.65h0a.66.66,0,0,1-.65-.65V29.64A.66.66,0,0,1,21.07,29Z"/><path class="cls-146" d="M21.07,29h0a.63.63,0,0,1,.63.62V57.25a.63.63,0,0,1-.63.62h0a.62.62,0,0,1-.62-.62V29.64A.62.62,0,0,1,21.07,29Z"/><path class="cls-28" d="M21.07,29h0a.61.61,0,0,1,.61.61v27.6a.61.61,0,0,1-.61.6h0a.6.6,0,0,1-.6-.6V29.65A.6.6,0,0,1,21.07,29Z"/><path class="cls-147" d="M21.07,29.07h0a.58.58,0,0,1,.58.58V57.24a.58.58,0,0,1-.58.58h0a.58.58,0,0,1-.58-.58V29.65A.58.58,0,0,1,21.07,29.07Z"/><path class="cls-148" d="M21.07,29.1h0a.56.56,0,0,1,.56.55V57.24a.56.56,0,0,1-.56.56h0a.56.56,0,0,1-.55-.56V29.65A.55.55,0,0,1,21.07,29.1Z"/><path class="cls-26" d="M21.07,29.12h0a.54.54,0,0,1,.54.54V57.24a.54.54,0,0,1-.54.53h0a.53.53,0,0,1-.53-.53V29.66A.54.54,0,0,1,21.07,29.12Z"/><path class="cls-149" d="M21.07,29.15h0a.51.51,0,0,1,.51.51V57.23a.51.51,0,0,1-.51.51h0a.51.51,0,0,1-.51-.51V29.66A.51.51,0,0,1,21.07,29.15Z"/><path class="cls-150" d="M21.07,29.18h0a.48.48,0,0,1,.49.48V57.23a.49.49,0,0,1-.49.49h0a.49.49,0,0,1-.48-.49V29.66A.48.48,0,0,1,21.07,29.18Z"/><path class="cls-24" d="M21.07,29.2h0a.46.46,0,0,1,.46.46V57.23a.46.46,0,0,1-.46.46h0a.47.47,0,0,1-.46-.46V29.66A.47.47,0,0,1,21.07,29.2Z"/><path class="cls-151" d="M21.07,29.23h0a.44.44,0,0,1,.44.44V57.23a.44.44,0,0,1-.44.43h0a.44.44,0,0,1-.44-.43V29.67A.44.44,0,0,1,21.07,29.23Z"/><path class="cls-152" d="M21.07,29.25h0a.42.42,0,0,1,.42.42V57.22a.42.42,0,0,1-.42.42h0a.41.41,0,0,1-.41-.42V29.67A.41.41,0,0,1,21.07,29.25Z"/><path class="cls-22" d="M21.07,29.28h0a.39.39,0,0,1,.39.39V57.22a.39.39,0,0,1-.39.39h0a.4.4,0,0,1-.39-.39V29.67A.4.4,0,0,1,21.07,29.28Z"/><path class="cls-161" d="M8,.91A6.78,6.78,0,0,0,6.06,2,7.53,7.53,0,0,1,7.4,1.41a24.74,24.74,0,0,1,12.67,0A7.53,7.53,0,0,1,21.41,2,6.78,6.78,0,0,0,19.52.91,20.7,20.7,0,0,0,8,.91Z"/><path class="cls-63" d="M25,29.89h.36a.28.28,0,0,0,.2-.1h0a.38.38,0,0,0,.08-.24V27.79a.33.33,0,0,0,0-.17h0a.29.29,0,0,0-.1-.12l-.4-.31v.45l.22.19s0,0,0,0h0a.11.11,0,0,1,0,.06v1.42a.11.11,0,0,1,0,.08.09.09,0,0,1-.07,0H25Z"/><path class="cls-63" d="M25,32.55h.36a.28.28,0,0,1,.2.1h0a.36.36,0,0,1,.08.24v1.76a.29.29,0,0,1,0,.16h0a.32.32,0,0,1-.1.13l-.4.3v-.45l.22-.18,0,0h0a.14.14,0,0,0,0-.06V33.09a.11.11,0,0,0,0-.08.09.09,0,0,0-.07,0H25Z"/><path class="cls-63" d="M2.43,29.89H2.07a.26.26,0,0,1-.2-.1h0a.38.38,0,0,1-.08-.24V27.79a.33.33,0,0,1,0-.17h0a.29.29,0,0,1,.1-.12l.4-.31v.45l-.22.19s0,0,0,0h0a.11.11,0,0,0,0,.06v1.42a.11.11,0,0,0,0,.08.09.09,0,0,0,.07,0h.29Z"/><path class="cls-63" d="M2.43,32.55H2.07a.26.26,0,0,0-.2.1h0a.36.36,0,0,0-.08.24v1.76a.29.29,0,0,0,0,.16h0a.32.32,0,0,0,.1.13l.4.3v-.45l-.22-.18a.05.05,0,0,1,0,0h0a.14.14,0,0,1,0-.06V33.09a.11.11,0,0,1,0-.08.09.09,0,0,1,.07,0h.29Z"/><path class="cls-63" d="M9.71,10.5a.28.28,0,1,1-.29.28A.28.28,0,0,1,9.71,10.5Z"/><circle cx="17.76" cy="10.78" r="0.28"/><path class="cls-22" d="M3.52,25.21A15.19,15.19,0,0,1,8,23.75a48.34,48.34,0,0,1,11.41,0A17.38,17.38,0,0,1,24,25.22v-6a.56.56,0,0,0-.2-.14,22.28,22.28,0,0,0-4.58-1,74.48,74.48,0,0,0-10.88,0,18.54,18.54,0,0,0-4.57,1,.86.86,0,0,0-.2.13Z"/><path class="cls-21" d="M3.54,25.17A15.11,15.11,0,0,1,8,23.71a48.17,48.17,0,0,1,11.39,0,17.29,17.29,0,0,1,4.5,1.47V19.23a.72.72,0,0,0-.2-.14,22.15,22.15,0,0,0-4.57-1,74.07,74.07,0,0,0-10.85,0,18.91,18.91,0,0,0-4.57,1,.56.56,0,0,0-.2.14Z"/><path class="cls-21" d="M3.56,25.13a15.13,15.13,0,0,1,4.49-1.46,48,48,0,0,1,11.37,0,17.72,17.72,0,0,1,4.49,1.47V19.25a.56.56,0,0,0-.2-.14,21.52,21.52,0,0,0-4.56-1,73.8,73.8,0,0,0-10.83,0,18.66,18.66,0,0,0-4.57,1,.59.59,0,0,0-.19.13Z"/><path class="cls-20" d="M3.58,25.09a14.94,14.94,0,0,1,4.48-1.46,47.84,47.84,0,0,1,11.35,0,17.63,17.63,0,0,1,4.48,1.47V19.26a.56.56,0,0,0-.2-.14,22,22,0,0,0-4.55-1,73.53,73.53,0,0,0-10.81,0,19,19,0,0,0-4.56,1,.62.62,0,0,0-.19.14Z"/><path class="cls-20" d="M3.6,25.05a15,15,0,0,1,4.47-1.46,47.67,47.67,0,0,1,11.33,0,17.68,17.68,0,0,1,4.47,1.47V19.28a.62.62,0,0,0-.19-.14,20.92,20.92,0,0,0-4.55-1,71.9,71.9,0,0,0-10.79,0,18.08,18.08,0,0,0-4.55,1,.59.59,0,0,0-.19.13Z"/><path class="cls-82" d="M3.62,25a14.87,14.87,0,0,1,4.46-1.46,48,48,0,0,1,11.3,0A17.38,17.38,0,0,1,23.85,25V19.29a.62.62,0,0,0-.19-.14,22.07,22.07,0,0,0-4.54-1,73,73,0,0,0-10.77,0,18.31,18.31,0,0,0-4.54,1,.8.8,0,0,0-.19.13Z"/><path class="cls-19" d="M3.64,25a14.89,14.89,0,0,1,4.45-1.46,47.25,47.25,0,0,1,11.28,0A16.94,16.94,0,0,1,23.83,25V19.3a.85.85,0,0,0-.19-.14,21.42,21.42,0,0,0-4.53-1,70.08,70.08,0,0,0-10.75,0,18.46,18.46,0,0,0-4.53,1,.85.85,0,0,0-.19.14Z"/><path class="cls-81" d="M3.66,24.94a14.79,14.79,0,0,1,4.45-1.46,47,47,0,0,1,11.25,0A17,17,0,0,1,23.81,25V19.32a.62.62,0,0,0-.19-.14,21.32,21.32,0,0,0-4.52-1,72.44,72.44,0,0,0-10.73,0,18.2,18.2,0,0,0-4.52,1,.8.8,0,0,0-.19.13Z"/><path class="cls-18" d="M3.68,24.9a14.81,14.81,0,0,1,4.44-1.46,46.83,46.83,0,0,1,11.23,0,17.28,17.28,0,0,1,4.44,1.47V19.33a.62.62,0,0,0-.19-.14,21.84,21.84,0,0,0-4.51-1,72.17,72.17,0,0,0-10.71,0,18.69,18.69,0,0,0-4.51,1,.62.62,0,0,0-.19.14Z"/><path class="cls-80" d="M3.7,24.86A14.62,14.62,0,0,1,8.13,23.4a46.67,46.67,0,0,1,11.21,0,17.32,17.32,0,0,1,4.43,1.47V19.35a.62.62,0,0,0-.19-.14,21.22,21.22,0,0,0-4.5-1,70.58,70.58,0,0,0-10.69,0,18.09,18.09,0,0,0-4.5,1,.59.59,0,0,0-.19.13Z"/><path class="cls-17" d="M3.72,24.82a14.64,14.64,0,0,1,4.42-1.46,46.5,46.5,0,0,1,11.19,0,17.1,17.1,0,0,1,4.42,1.47V19.36a.62.62,0,0,0-.19-.14,21.74,21.74,0,0,0-4.49-1,71.64,71.64,0,0,0-10.67,0,18.58,18.58,0,0,0-4.49,1,.8.8,0,0,0-.19.13Z"/><path class="cls-79" d="M3.74,24.78a14.56,14.56,0,0,1,4.41-1.46,46.34,46.34,0,0,1,11.17,0,17.15,17.15,0,0,1,4.41,1.47V19.38a.62.62,0,0,0-.19-.14,20.23,20.23,0,0,0-4.48-1,68.78,68.78,0,0,0-10.65,0,17.41,17.41,0,0,0-4.48,1,.59.59,0,0,0-.19.13Z"/><path class="cls-16" d="M3.76,24.74a14.34,14.34,0,0,1,4.4-1.45,46.17,46.17,0,0,1,11.15,0,16.68,16.68,0,0,1,4.4,1.47V19.39a.62.62,0,0,0-.19-.14,21.49,21.49,0,0,0-4.47-1,71.1,71.1,0,0,0-10.63,0,17.86,17.86,0,0,0-4.47,1,.8.8,0,0,0-.19.13Z"/><path class="cls-78" d="M3.78,24.71a14.49,14.49,0,0,1,4.39-1.46,46,46,0,0,1,11.13,0,16.73,16.73,0,0,1,4.39,1.47V19.4a.85.85,0,0,0-.19-.14,21.36,21.36,0,0,0-4.46-1,70.83,70.83,0,0,0-10.61,0,18.23,18.23,0,0,0-4.46,1,.62.62,0,0,0-.19.14Z"/><path class="cls-15" d="M3.8,24.67a14.51,14.51,0,0,1,4.38-1.46,45.76,45.76,0,0,1,11.1,0,16.6,16.6,0,0,1,4.39,1.47V19.42a.62.62,0,0,0-.19-.14,20.75,20.75,0,0,0-4.45-1,69.26,69.26,0,0,0-10.59,0,17.75,17.75,0,0,0-4.45,1,.59.59,0,0,0-.19.13Z"/><path class="cls-77" d="M3.82,24.63a14.33,14.33,0,0,1,4.37-1.46,45.6,45.6,0,0,1,11.08,0,16.88,16.88,0,0,1,4.38,1.47V19.43a.62.62,0,0,0-.19-.14,21.23,21.23,0,0,0-4.45-1,70.17,70.17,0,0,0-10.56,0,18.11,18.11,0,0,0-4.44,1,.8.8,0,0,0-.19.13Z"/><path class="cls-14" d="M3.84,24.59a14.33,14.33,0,0,1,4.37-1.46,45.35,45.35,0,0,1,11.05,0,16.79,16.79,0,0,1,4.37,1.47V19.45a.52.52,0,0,0-.19-.14,19.89,19.89,0,0,0-4.44-1,67.24,67.24,0,0,0-10.53,0,17.19,17.19,0,0,0-4.44,1,.59.59,0,0,0-.19.13Z"/><path class="cls-76" d="M3.86,24.55a14.25,14.25,0,0,1,4.36-1.46,45.19,45.19,0,0,1,11,0,16.71,16.71,0,0,1,4.36,1.47v-5.1a.52.52,0,0,0-.19-.14,21,21,0,0,0-4.43-1,69.51,69.51,0,0,0-10.51,0,17.41,17.41,0,0,0-4.43,1,.8.8,0,0,0-.19.13Z"/><path class="cls-13" d="M3.88,24.51a14.27,14.27,0,0,1,4.35-1.46,45,45,0,0,1,11,0,16.75,16.75,0,0,1,4.35,1.47V19.47a.67.67,0,0,0-.19-.14,20.85,20.85,0,0,0-4.42-1,69.24,69.24,0,0,0-10.49,0,17.88,17.88,0,0,0-4.42,1,.62.62,0,0,0-.19.14Z"/><path class="cls-75" d="M3.9,24.47A14.23,14.23,0,0,1,8.24,23a44.86,44.86,0,0,1,11,0,16.3,16.3,0,0,1,4.34,1.47v-5a.52.52,0,0,0-.19-.14,20.26,20.26,0,0,0-4.41-1,69,69,0,0,0-10.47,0,17.3,17.3,0,0,0-4.41,1,.59.59,0,0,0-.19.13Z"/><path class="cls-12" d="M3.92,24.44A14.2,14.2,0,0,1,8.25,23a44.7,44.7,0,0,1,11,0,16.34,16.34,0,0,1,4.33,1.47V19.5a.52.52,0,0,0-.19-.14,20.76,20.76,0,0,0-4.4-1,68.72,68.72,0,0,0-10.45,0,17.77,17.77,0,0,0-4.4,1,.62.62,0,0,0-.19.14Z"/><path class="cls-74" d="M3.94,24.4a14,14,0,0,1,4.32-1.46,44.54,44.54,0,0,1,11,0,16.13,16.13,0,0,1,4.32,1.47V19.52a.52.52,0,0,0-.19-.14,19.45,19.45,0,0,0-4.39-1,67.19,67.19,0,0,0-10.43,0,16.76,16.76,0,0,0-4.39,1,.59.59,0,0,0-.19.13Z"/><path class="cls-162" d="M3.35,13.45s.14-6.33,1-8.26l.11,0c-.84,1.91-1,8.19-1,8.21Z"/><path class="cls-162" d="M24.12,13.45s-.14-6.33-1-8.26l-.1,0c.84,1.91,1,8.19,1,8.21Z"/><path class="cls-162" d="M4.22,5.53a11.28,11.28,0,0,1,3.9-3.4,1.9,1.9,0,0,0,.82-.84A7.61,7.61,0,0,0,4.6,4.15C4.46,4.65,4.37,5,4.22,5.53Z"/><path class="cls-163" d="M4.41,5.16A10.37,10.37,0,0,1,8.14,2.05a2.17,2.17,0,0,0,.65-.63,7.34,7.34,0,0,0-4.1,2.72C4.58,4.51,4.5,4.82,4.41,5.16Z"/><path class="cls-1" d="M4.49,5.07a10.2,10.2,0,0,1,3.65-3,.72.72,0,0,0,.19-.13A6.39,6.39,0,0,0,4.49,5.07Z"/><path class="cls-162" d="M23.24,5.53a11.34,11.34,0,0,0-3.89-3.4,1.85,1.85,0,0,1-.82-.84,7.61,7.61,0,0,1,4.34,2.86C23,4.65,23.1,5,23.24,5.53Z"/><path class="cls-164" d="M23.06,5.16a10.37,10.37,0,0,0-3.73-3.11,2.09,2.09,0,0,1-.66-.63,7.33,7.33,0,0,1,4.11,2.72C22.88,4.51,23,4.82,23.06,5.16Z"/><path class="cls-1" d="M23,5.07a10.2,10.2,0,0,0-3.65-3,.76.76,0,0,1-.2-.13A6.41,6.41,0,0,1,23,5.07Z"/><path class="cls-63" d="M23.87,13.24a.59.59,0,0,1,.14.06.47.47,0,0,1,.1.1.42.42,0,0,1,.07.13.39.39,0,0,1,0,.15l0,1.91,0,1.91v1.9l0,1.91c0,.87-1.62.51-2,.41a14.31,14.31,0,0,0-2.23-.38c-.89-.1-1.88-.18-2.79-.24a47.8,47.8,0,0,0-6.77,0c-.91.06-1.9.14-2.79.24a14.31,14.31,0,0,0-2.23.38c-.37.1-2,.46-2-.41l0-1.91,0-1.9V15.59l0-1.91a.39.39,0,0,1,0-.15.42.42,0,0,1,.07-.13.47.47,0,0,1,.1-.1.59.59,0,0,1,.14-.06,37.32,37.32,0,0,1,5.08-1.12,35,35,0,0,1,10.11,0A37.32,37.32,0,0,1,23.87,13.24Z"/><path class="cls-165" d="M23.68,14.4l-.06,6.37s.19,1-1.89.38a54.66,54.66,0,0,0-8-.73,54.55,54.55,0,0,0-8,.73c-2.08.58-1.89-.38-1.89-.38L3.79,14.4A35.06,35.06,0,0,1,23.68,14.4Z"/><path class="cls-166" d="M10.24,20.59a27.8,27.8,0,0,0-4.5.56c-2.08.58-1.89-.38-1.89-.38L3.79,14.4a36.74,36.74,0,0,1,6.45-1.26Z"/><path class="cls-167" d="M23.68,14.4l-.06,6.37s.19,1-1.89.38a30.81,30.81,0,0,0-5-.59V13.09A37.12,37.12,0,0,1,23.68,14.4Z"/></g></g></svg>